<svg xmlns="http://www.w3.org/2000/svg" width="66.578" height="70" viewBox="0 0 66.578 70">
  <path id="idea_8594032" d="M47.7,13.065A22.368,22.368,0,0,0,36.271,54.659a2.943,2.943,0,0,1,1.486,2.615v5.151a4.152,4.152,0,0,0,2.9,3.955v.1A5.531,5.531,0,0,0,46.186,72h3.039a5.531,5.531,0,0,0,5.524-5.525v-.1a4.152,4.152,0,0,0,2.9-3.955V57.274a2.943,2.943,0,0,1,1.486-2.615A22.369,22.369,0,0,0,47.7,13.065ZM49.224,69.52H46.186a3.047,3.047,0,0,1-3.042-2.95h9.122A3.047,3.047,0,0,1,49.224,69.52Zm4.284-5.43H41.9a1.666,1.666,0,0,1-1.664-1.664v-.882H55.173v.882A1.666,1.666,0,0,1,53.509,64.089ZM57.87,52.528a5.409,5.409,0,0,0-2.7,4.746v1.789H40.238V57.274a5.408,5.408,0,0,0-2.7-4.746,19.886,19.886,0,1,1,20.329,0Zm-36.728-16H15.656a1.24,1.24,0,1,1,0-2.48h5.485a1.24,1.24,0,1,1,0,2.48ZM18.876,18.645a1.24,1.24,0,0,1,1.694-.454l4.75,2.743a1.24,1.24,0,1,1-1.24,2.148l-4.75-2.743a1.24,1.24,0,0,1-.454-1.694Zm50.76,3.983a1.24,1.24,0,0,1,.454-1.694l4.751-2.743a1.24,1.24,0,1,1,1.24,2.148L71.33,23.082a1.24,1.24,0,0,1-1.694-.454ZM46.465,8.726V3.24a1.24,1.24,0,0,1,2.48,0V8.726a1.24,1.24,0,0,1-2.48,0Zm13.448,2.939,2.743-4.75A1.24,1.24,0,0,1,64.8,8.154L62.061,12.9a1.24,1.24,0,0,1-2.148-1.24ZM30.607,8.154a1.24,1.24,0,1,1,2.148-1.24l2.743,4.75a1.24,1.24,0,1,1-2.148,1.24Zm-4.832,39.8a1.24,1.24,0,0,1-.454,1.694l-4.75,2.743a1.24,1.24,0,0,1-1.24-2.148L24.08,47.5A1.24,1.24,0,0,1,25.774,47.951Zm50.76,3.983a1.24,1.24,0,0,1-1.694.454L70.09,49.645A1.24,1.24,0,1,1,71.33,47.5l4.751,2.743A1.24,1.24,0,0,1,76.534,51.934Zm4.46-16.645a1.24,1.24,0,0,1-1.24,1.24H74.269a1.24,1.24,0,1,1,0-2.48h5.485A1.24,1.24,0,0,1,80.994,35.289Zm-19.165-3.6h-2.3a12.239,12.239,0,0,0-.92-2.22l1.627-1.627a1.24,1.24,0,0,0,0-1.754L56.9,22.758a1.24,1.24,0,0,0-1.754,0l-1.627,1.627a12.233,12.233,0,0,0-2.22-.92v-2.3a1.24,1.24,0,0,0-1.24-1.24H45.348a1.24,1.24,0,0,0-1.24,1.24v2.3a12.232,12.232,0,0,0-2.22.92l-1.627-1.627a1.24,1.24,0,0,0-1.754,0l-3.333,3.333a1.24,1.24,0,0,0,0,1.754L36.8,29.472a12.238,12.238,0,0,0-.92,2.22h-2.3a1.24,1.24,0,0,0-1.24,1.24v4.714a1.24,1.24,0,0,0,1.24,1.24h2.3a12.226,12.226,0,0,0,.92,2.22l-1.627,1.627a1.24,1.24,0,0,0,0,1.754l3.333,3.333a1.24,1.24,0,0,0,1.754,0l1.627-1.627a12.246,12.246,0,0,0,2.22.92v2.3a1.24,1.24,0,0,0,1.24,1.24h4.714a1.24,1.24,0,0,0,1.24-1.24v-2.3a12.23,12.23,0,0,0,2.22-.92l1.627,1.627a1.24,1.24,0,0,0,1.754,0l3.333-3.333a1.241,1.241,0,0,0,0-1.754l-1.627-1.627a12.222,12.222,0,0,0,.92-2.22h2.3a1.24,1.24,0,0,0,1.24-1.24V32.932A1.24,1.24,0,0,0,61.829,31.692Zm-1.24,4.714H58.57a1.24,1.24,0,0,0-1.212.979,9.786,9.786,0,0,1-1.346,3.249,1.24,1.24,0,0,0,.165,1.549l1.428,1.428-1.579,1.579L54.6,43.761a1.241,1.241,0,0,0-1.549-.165A9.794,9.794,0,0,1,49.8,44.942a1.24,1.24,0,0,0-.978,1.212v2.019H46.589V46.154a1.24,1.24,0,0,0-.978-1.212A9.794,9.794,0,0,1,42.361,43.6a1.24,1.24,0,0,0-1.549.165l-1.428,1.428L37.806,43.61l1.428-1.428a1.24,1.24,0,0,0,.165-1.549,9.791,9.791,0,0,1-1.346-3.249,1.24,1.24,0,0,0-1.212-.978H34.822V34.172H36.84a1.24,1.24,0,0,0,1.212-.978A9.789,9.789,0,0,1,39.4,29.945a1.24,1.24,0,0,0-.165-1.549l-1.428-1.428,1.579-1.579,1.428,1.428a1.24,1.24,0,0,0,1.549.165,9.781,9.781,0,0,1,3.249-1.346,1.24,1.24,0,0,0,.978-1.212V22.405h2.234v2.019a1.24,1.24,0,0,0,.978,1.212,9.781,9.781,0,0,1,3.249,1.346,1.24,1.24,0,0,0,1.549-.165l1.428-1.428,1.579,1.58L56.178,28.4a1.24,1.24,0,0,0-.165,1.549,9.8,9.8,0,0,1,1.346,3.249,1.24,1.24,0,0,0,1.212.978h2.019ZM47.705,27.667a7.622,7.622,0,1,0,7.622,7.622A7.631,7.631,0,0,0,47.705,27.667Zm0,12.764a5.142,5.142,0,1,1,5.142-5.142A5.148,5.148,0,0,1,47.705,40.431Z" transform="translate(-14.416 -2)" fill="#000034"/>
</svg>
