<svg xmlns="http://www.w3.org/2000/svg" width="158.895" height="95.045" viewBox="0 0 158.895 95.045">
  <path id="Path_8" data-name="Path 8" d="M1254.221,2190.045a35.221,35.221,0,1,1,35.185-35.222A35.271,35.271,0,0,1,1254.221,2190.045Zm43.417-28.519a6.721,6.721,0,1,1,6.738-6.7A6.731,6.731,0,0,1,1297.638,2161.526Zm-.073-33.328a16.1,16.1,0,1,1,16.136-16.1A16.127,16.127,0,0,1,1297.565,2128.2Zm-6.265,20a38.341,38.341,0,0,0-3.241-9.943h19.814a36.568,36.568,0,0,0-3.351,10.453,9.16,9.16,0,0,0-6.884-3.06A9.044,9.044,0,0,0,1291.3,2148.194Zm-4.589-12.42a37.818,37.818,0,0,0-23.821-17.628,23.752,23.752,0,0,1,16.245-8.159,13.418,13.418,0,0,0-.146,2.112,18.594,18.594,0,0,0,37.188,0,19.937,19.937,0,0,0-.146-2.112,23.541,23.541,0,0,1,16.354,8.341,37.826,37.826,0,0,0-23.2,17.447Zm55,54.271a35.2,35.2,0,1,1,35.185-35.222A35.247,35.247,0,0,1,1341.71,2190.045Zm-6.593-26.225a1.272,1.272,0,0,0,.875-.364l14.314-14.314a1.19,1.19,0,0,0,0-1.749,1.252,1.252,0,0,0-1.748,0l-14.314,14.314a1.253,1.253,0,0,0,0,1.748A1.343,1.343,0,0,0,1335.117,2163.82Zm-1.2-9.725a1.128,1.128,0,0,0,.874-.364l5.828-5.792a1.236,1.236,0,1,0-1.748-1.748l-5.828,5.791a1.254,1.254,0,0,0,0,1.749A1.183,1.183,0,0,0,1333.915,2154.095Zm7.795,22.947a22.218,22.218,0,1,0-22.218-22.218A22.205,22.205,0,0,0,1341.71,2177.042Zm0-41.959a19.741,19.741,0,1,1-19.778,19.741A19.757,19.757,0,0,1,1341.71,2135.082Zm-94.045,28.738a1.271,1.271,0,0,0,.874-.364l14.314-14.314a1.236,1.236,0,0,0-1.748-1.749l-14.314,14.314a1.22,1.22,0,0,0,0,1.748A1.271,1.271,0,0,0,1247.665,2163.82Zm-1.2-9.725a1.128,1.128,0,0,0,.874-.364l5.791-5.792a1.189,1.189,0,0,0,0-1.748,1.253,1.253,0,0,0-1.748,0l-5.791,5.791a1.253,1.253,0,0,0,0,1.749A1.128,1.128,0,0,0,1246.463,2154.095Zm7.758,22.947A22.218,22.218,0,1,0,1232,2154.823,22.236,22.236,0,0,0,1254.221,2177.042Zm0-41.959a19.741,19.741,0,1,1-19.741,19.741A19.757,19.757,0,0,1,1254.221,2135.082Z" transform="translate(-1218.5 -2095.5)" fill="none" stroke="#fff" stroke-width="1" fill-rule="evenodd"/>
</svg>
