<svg id="Group_24274" data-name="Group 24274" xmlns="http://www.w3.org/2000/svg" xmlns:xlink="http://www.w3.org/1999/xlink" width="78.725" height="70" viewBox="0 0 78.725 70">
  <defs>
    <clipPath id="clip-path">
      <rect id="Rectangle_1919" data-name="Rectangle 1919" width="78.725" height="70" fill="#0a00b7" stroke="#0a01b7" stroke-width="1"/>
    </clipPath>
  </defs>
  <g id="Group_23075" data-name="Group 23075" clip-path="url(#clip-path)">
    <path id="Path_3642" data-name="Path 3642" d="M233.326,118.185c.113-1.051-.334-2.492,1.421-2.6.923-.056,1.208.558,1.337,2.576.841.138,1.7.227,2.533.425a10.763,10.763,0,0,1,8.217,10.259c.014.927.019,1.854,0,2.781a1.355,1.355,0,0,1-1.31,1.462,1.37,1.37,0,0,1-1.38-1.478,35.276,35.276,0,0,0-.188-4.113A7.951,7.951,0,0,0,236.1,121v16.112a10.81,10.81,0,0,1,8.437,4.192,10.486,10.486,0,0,1,2.278,7.309,10.894,10.894,0,0,1-10.743,10.157c-.125,1.06.335,2.67-1.468,2.6-1.6-.064-1.174-1.538-1.261-2.367a29.809,29.809,0,0,1-4.495-1.317A10.413,10.413,0,0,1,222.564,148c-.034-.9-.023-1.8,0-2.7a1.336,1.336,0,0,1,1.353-1.414,1.357,1.357,0,0,1,1.333,1.439,37.445,37.445,0,0,0,.184,4.113A8.011,8.011,0,0,0,232.7,156c.189.013.379,0,.611,0V139.88a10.886,10.886,0,0,1-8.736-4.571,10.492,10.492,0,0,1-1.994-6.983,10.935,10.935,0,0,1,10.748-10.141m-.029,18.908V121a8.045,8.045,0,0,0,0,16.09m2.794,18.937a7.9,7.9,0,0,0,6.9-4,7.676,7.676,0,0,0-.188-8.508,7.844,7.844,0,0,0-6.713-3.682Z" transform="translate(-198.491 -103.091)" fill="#0a00b7" stroke="#0a01b7" stroke-width="1"/>
    <path id="Path_3643" data-name="Path 3643" d="M543.491,304.393a.522.522,0,0,0-.093-.042,1.645,1.645,0,0,1-1.07-.834q-.9-1.574-1.813-3.143-3.486-6.039-6.968-12.079a2.34,2.34,0,0,1-.275-.665,1.6,1.6,0,0,1,1.414-1.924,3.325,3.325,0,0,1,.336-.014h4.048c0-.122.008-.222.008-.322q0-3.462,0-6.924t0-6.924a2.1,2.1,0,0,1,1.612-2.061,2.538,2.538,0,0,1,.59-.065c1.659,0,3.319.01,4.978-.007a2.182,2.182,0,0,1,2.226,2.223c-.019,4.573-.008,9.146-.008,13.719v.362h.335q1.906,0,3.811,0a1.617,1.617,0,0,1,1.34.612,1.323,1.323,0,0,1,.322.776.587.587,0,0,0,.044.143v.208c-.013.022-.036.043-.036.065a1.627,1.627,0,0,1-.289.819q-4.36,7.551-8.714,15.1a1.8,1.8,0,0,1-1.143.941c-.014,0-.023.023-.035.035Zm-2.9-17.187h-.329c-1.737,0-3.475,0-5.212,0-.335,0-.355.1-.192.337l.014.022,8.708,15.088c.183.317.224.317.411-.008l8.694-15.066a1.759,1.759,0,0,0,.1-.181c.046-.109.017-.167-.1-.183a1.646,1.646,0,0,0-.233-.006h-5.16c-.1,0-.2-.007-.321-.011v-.361q0-7.535,0-15.07c0-.1,0-.191,0-.285a.6.6,0,0,0-.547-.564,2.2,2.2,0,0,0-.259-.008c-1.582,0-3.164.012-4.745-.007-.549-.007-.837.236-.835.846q.019,7.548.007,15.1Z" transform="translate(-477.637 -241.288)" fill="#0a00b7" stroke="#0a01b7" stroke-width="1"/>
    <path id="Path_3644" data-name="Path 3644" d="M10.787,0A.608.608,0,0,0,10.9.049,1.666,1.666,0,0,1,12.048.9c.57,1,1.148,1.991,1.723,2.987q3.544,6.141,7.088,12.281a1.983,1.983,0,0,1,.262.671,1.619,1.619,0,0,1-1.583,1.886c-1.3.007-2.593,0-3.889,0h-.34c0,.116-.01.216-.01.316q0,2.8,0,5.6,0,4.124,0,8.248a2.092,2.092,0,0,1-1.483,2.029,2.244,2.244,0,0,1-.636.095c-1.72.007-3.44,0-5.16.007A2.141,2.141,0,0,1,5.9,32.894c.012-4.331,0-8.663,0-12.994q0-.493,0-.986c0-.05-.007-.1-.014-.186H1.768A1.611,1.611,0,0,1,.09,17.436,1.654,1.654,0,0,0,0,17.224v-.259a.678.678,0,0,0,.077-.16,2.36,2.36,0,0,1,.317-.732q2.034-3.52,4.065-7.041Q6.8,4.971,9.143.912A1.676,1.676,0,0,1,10.309.048.639.639,0,0,0,10.424,0ZM7.412,17.219V32.657c0,.1,0,.191,0,.285a.61.61,0,0,0,.57.569c.043,0,.086,0,.13,0h4.979c.035,0,.069,0,.1,0a.617.617,0,0,0,.593-.577c.007-.086,0-.173,0-.259V19.629q0-1.063,0-2.127c0-.091.008-.182.012-.283h.343c1.7,0,3.405-.005,5.108,0,.457,0,.421-.083.232-.41Q15.2,9.395,10.919,1.973c-.061-.1-.117-.212-.183-.314-.1-.15-.172-.152-.268-.01-.048.071-.089.148-.132.223Q6.015,9.361,1.69,16.848c-.183.316-.149.376.211.375,1.72-.007,3.44,0,5.16,0Z" transform="translate(2.032 2.032)" fill="#0a00b7" stroke="#0a01b7" stroke-width="1"/>
    <path id="Path_3645" data-name="Path 3645" d="M74.978,205.885A31.781,31.781,0,0,1,17.5,187.162a37.884,37.884,0,0,1,3.4-14.5l-1.917-1.595a30.975,30.975,0,0,0-4.29,16.091,34.585,34.585,0,0,0,62.231,20.812c-.669-.718-1.32-1.419-1.941-2.089" transform="translate(-13.1 -151.779)" fill="#0a00b7" stroke="#0a01b7" stroke-width="1"/>
    <path id="Path_3646" data-name="Path 3646" d="M161.7,9.9a31.8,31.8,0,0,1,31.261,26.045l2.847.064A34.536,34.536,0,0,0,140.7,14.236l1.338,2.5A31.642,31.642,0,0,1,161.7,9.9" transform="translate(-125.496 -6.329)" fill="#0a00b7" stroke="#0a01b7" stroke-width="1"/>
  </g>
</svg>
