<svg id="Group_24289" data-name="Group 24289" xmlns="http://www.w3.org/2000/svg" xmlns:xlink="http://www.w3.org/1999/xlink" width="74.607" height="70" viewBox="0 0 74.607 70">
  <defs>
    <clipPath id="clip-path">
      <rect id="Rectangle_1816" data-name="Rectangle 1816" width="74.607" height="70" fill="#0a00b7"/>
    </clipPath>
  </defs>
  <g id="Group_22869" data-name="Group 22869" clip-path="url(#clip-path)">
    <path id="Path_3473" data-name="Path 3473" d="M74.6,64.6c0-1-.388-1.379-1.413-1.384-1,0-2,0-3.1,0v-.811q0-14.653,0-29.307c0-1.2-.343-1.537-1.548-1.536l-11.308,0c-.115,0-.252.039-.341-.009-.138-.075-.339-.2-.345-.32-.034-.627-.016-1.256-.016-1.949h.689c1.6,0,3.192,0,4.788,0a1.15,1.15,0,0,0,1.29-1.276q.014-2.134,0-4.269a1.117,1.117,0,0,0-1.218-1.228c-.339-.013-.679,0-1.04,0-.03-.263-.058-.451-.072-.64A23.736,23.736,0,0,0,43.51.728C43.17.635,43,.509,42.957.239c-.546-.02-1.09-.078-1.639-.128-.349-.032-.7-.07-1.05-.111H34.236a13.594,13.594,0,0,1-2.027.7,12.162,12.162,0,0,1-2.154.328,23.707,23.707,0,0,0-16.32,19.808c-.065.544-.116,1.09-.177,1.671-.368,0-.673-.007-.979,0a1.139,1.139,0,0,0-1.267,1.3q-.011,2.077,0,4.154c0,.914.428,1.323,1.356,1.326,1.231,0,2.462,0,3.692,0h1.722c0,.606-.03,1.141.009,1.672.035.478-.121.621-.606.619-3.788-.019-7.577-.011-11.365-.01-1.288,0-1.6.31-1.6,1.6q0,14.625,0,29.25v.772c-.254.012-.44.029-.627.029-.9,0-1.808-.011-2.711.007A1.066,1.066,0,0,0,.02,64.259c-.027,1.557-.024,3.115,0,4.673a1.032,1.032,0,0,0,.973,1.036A5.307,5.307,0,0,0,1.737,70H72.468c.288,0,.577.008.865,0a1.144,1.144,0,0,0,1.27-1.3q.009-2.048,0-4.1M56.58,33.855H67.807V63.191H61.05c0-.86,0-1.7,0-2.536,0-.269.012-.539-.006-.807a1.109,1.109,0,0,0-1.187-1.143c-1.073-.018-2.148,0-3.276,0ZM36.211,2.187A21.405,21.405,0,0,1,58.727,22.473H15.911a21.314,21.314,0,0,1,20.3-20.287M13.574,24.814H61.018v2.169H13.574ZM54.217,58.666h-6.69V29.34h6.69ZM45.2,58.659H43.01V29.321H45.2Zm-4.556,0H33.967V29.321h6.676Zm-9.027-.009h-2.2V29.321h2.2Zm-4.518.006H20.377V29.32H27.1ZM58.755,63.17h-42.9V60.989h42.9ZM6.8,33.85H18.028V58.7c-1.035,0-2.049,0-3.063,0-.991,0-1.405.414-1.408,1.4,0,1.014,0,2.028,0,3.08H6.8ZM72.343,67.689H2.274V65.513H72.343Z" transform="translate(0)" fill="#0a00b7"/>
  </g>
</svg>
