<svg id="Group_23714" data-name="Group 23714" xmlns="http://www.w3.org/2000/svg" xmlns:xlink="http://www.w3.org/1999/xlink" width="51.355" height="70" viewBox="0 0 51.355 70">
  <defs>
    <clipPath id="clip-path">
      <rect id="Rectangle_2094" data-name="Rectangle 2094" width="51.355" height="70" fill="#0a00b7"/>
    </clipPath>
  </defs>
  <g id="Group_23713" data-name="Group 23713" clip-path="url(#clip-path)">
    <path id="Path_3765" data-name="Path 3765" d="M45.77,0a2.506,2.506,0,0,1,1.478,2.648c-.052,1.958-.031,3.919,0,5.878a2.807,2.807,0,0,0,.305,1.223c1.1,2.092,2.268,4.152,3.355,6.252a4.1,4.1,0,0,1,.415,1.679c.057,1.456.019,2.916.019,4.374,0,3.085-1.129,4.689-4.108,5.766,0,.655,0,1.334,0,2.014,0,2.073.008,4.147-.006,6.22A1.109,1.109,0,0,1,46.154,37.3c-.588-.018-.991-.5-1.026-1.226-.008-.159,0-.319,0-.478V27.906a5.406,5.406,0,0,1-4.657-2.061,5.907,5.907,0,0,1-4.945,2.068,5.851,5.851,0,0,1-4.908-2.049A5.9,5.9,0,0,1,25.7,27.912a5.853,5.853,0,0,1-4.919-2.048,5.921,5.921,0,0,1-4.907,2.049,5.907,5.907,0,0,1-4.959-2.067,5.559,5.559,0,0,1-4.628,2.059v31.6H7.1q6.489,0,12.978,0a4,4,0,0,1,.749.032,1.031,1.031,0,0,1,0,2.046,3.764,3.764,0,0,1-.681.029q-6.489,0-12.978,0H6.3V67.9H45.077V61.617H25.78c-1.14,0-1.592-.29-1.605-1.028-.014-.763.462-1.081,1.626-1.081H45.126V41.551c0-.182,0-.365,0-.547.02-.818.435-1.333,1.065-1.324s1.039.521,1.039,1.348q.005,13.4,0,26.795A2.018,2.018,0,0,1,44.991,70H6.6c-1.751,0-2.464-.72-2.464-2.5q0-11.586,0-23.172V27.983a25.225,25.225,0,0,1-2.382-1.446A5.434,5.434,0,0,1,0,23.243V16.817C1.311,14.4,2.629,11.992,3.924,9.569a2.03,2.03,0,0,0,.205-.909c.018-2,.045-4.009,0-6.012A2.517,2.517,0,0,1,5.6,0Zm2.721,15.933c-.122-.256-.209-.459-.314-.653-.746-1.38-1.52-2.746-2.232-4.143a1.049,1.049,0,0,0-1.1-.656q-13.251.027-26.5.013c-1.218,0-1.714-.314-1.7-1.074.009-.736.489-1.034,1.668-1.034H45.086V2.094H6.294V8.385c2.115,0,4.182,0,6.25,0a4.34,4.34,0,0,1,.749.027A.971.971,0,0,1,14.2,9.427a.98.98,0,0,1-.894,1.032,3.393,3.393,0,0,1-.68.034c-2.072,0-4.144.018-6.215-.011a.907.907,0,0,0-.942.572c-.745,1.432-1.532,2.843-2.3,4.264-.1.189-.183.391-.287.616ZM29.516,18.075H21.862c0,1.784-.07,3.534.025,5.276a2.7,2.7,0,0,0,2.271,2.339,12.553,12.553,0,0,0,3.047,0,2.723,2.723,0,0,0,2.289-2.4c.085-1.72.022-3.448.022-5.217m2.162,0c0,1.72-.035,3.359.011,5a2.826,2.826,0,0,0,2.3,2.625,10.4,10.4,0,0,0,2.713.07,2.934,2.934,0,0,0,2.691-3.07c.019-.91,0-1.821,0-2.732,0-.626,0-1.252,0-1.889Zm9.831,0c0,1.658-.024,3.25.007,4.84a2.838,2.838,0,0,0,2.423,2.8,10.778,10.778,0,0,0,2.911-.011,2.522,2.522,0,0,0,2.274-2.237c.174-1.771.045-3.572.045-5.39Zm-39.361.009c0,1.649-.035,3.261.011,4.871a2.839,2.839,0,0,0,2.455,2.772,10.057,10.057,0,0,0,2.512.055,2.954,2.954,0,0,0,2.74-3.1c.016-1.366.006-2.732,0-4.1a4.311,4.311,0,0,0-.057-.5ZM12,18.07c0,1.717-.038,3.356.012,4.993A2.817,2.817,0,0,0,14.3,25.692a10.406,10.406,0,0,0,2.713.071A2.926,2.926,0,0,0,19.706,22.7c.019-1.32.006-2.641,0-3.961,0-.218-.024-.436-.038-.664Z" fill="#0a00b7"/>
    <path id="Path_3766" data-name="Path 3766" d="M110.067,261.782a3.784,3.784,0,0,1-1.019,4.531,3.72,3.72,0,0,1-4.449.244c-1.539-1.016-1.991-2.55-1.394-4.8h-3.37a12.127,12.127,0,0,1-.031,2.612,3.679,3.679,0,0,1-4.719,2.639,3.759,3.759,0,0,1-2.409-4.868.825.825,0,0,0-.09-.975,1.893,1.893,0,0,1-.263-.763q-1.451-5.606-2.9-11.213c-.045-.174-.113-.342-.187-.561-1.046,0-2.091,0-3.136,0-.87,0-1.313-.365-1.3-1.039s.469-1.022,1.333-1.025c1.229,0,2.459.012,3.688-.006a1.178,1.178,0,0,1,1.32,1.008c.127.553.331,1.092.417,1.65s.346.675.869.674q9.288-.026,18.576-.011c1.909,0,2.156.325,1.69,2.195-.7,2.8-1.384,5.6-2.095,8.4a11.1,11.1,0,0,1-.534,1.316m-15.8-2.163h14.415l1.888-7.581H92.3l1.966,7.581m1.961,2.1a1.69,1.69,0,1,0,1.683,1.706,1.719,1.719,0,0,0-1.683-1.706m10.431,0a1.688,1.688,0,1,0,1.667,1.687,1.653,1.653,0,0,0-1.667-1.687" transform="translate(-73.186 -212.779)" fill="#0a00b7"/>
    <path id="Path_3768" data-name="Path 3768" d="M178.128,306.2c1.3,0,2.593-.008,3.89,0,.8.007,1.242.4,1.229,1.045s-.461,1.015-1.266,1.016q-3.89.006-7.78,0c-.779,0-1.269-.4-1.282-1.02s.459-1.034,1.25-1.041c1.319-.012,2.639,0,3.958,0" transform="translate(-149.231 -264.25)" fill="#0a00b7"/>
  </g>
</svg>
