<svg id="Group_24285" data-name="Group 24285" xmlns="http://www.w3.org/2000/svg" xmlns:xlink="http://www.w3.org/1999/xlink" width="69.405" height="70" viewBox="0 0 69.405 70">
  <defs>
    <clipPath id="clip-path">
      <rect id="Rectangle_2099" data-name="Rectangle 2099" width="69.405" height="70" fill="#fff"/>
    </clipPath>
  </defs>
  <g id="Group_23715" data-name="Group 23715" clip-path="url(#clip-path)">
    <path id="Path_3769" data-name="Path 3769" d="M83.368,19.678c-3.2,2.119-4.765.3-6.1-2.3A14.443,14.443,0,0,0,75.3,14.812c-1.407-1.661-1.446-2.185-.186-3.941.271-.378.534-.762.887-1.267l-4.5-3.3c-.163.068-.278.078-.322.139-2.077,2.87-2.3,3.185-5.752,1.591a20.965,20.965,0,0,0-3.634-1.088c-2.01-.513-2.458-1.048-2.47-3.12,0-.463,0-.926,0-1.473H53.566c0,.631,0,1.264,0,1.9a2.427,2.427,0,0,1-2.06,2.6,53.394,53.394,0,0,0-5.6,1.85A2.4,2.4,0,0,1,42.718,7.8c-.353-.5-.722-.98-1.175-1.593L36.891,9.575c.46.658.883,1.257,1.3,1.861a2.212,2.212,0,0,1-.125,2.849c-1.268,1.685-2.511,3.391-3.707,5.127a2.317,2.317,0,0,1-2.78,1.079c-.673-.192-1.337-.418-2.116-.663l-1.75,5.364c3.981,1.959,4.092,2.132,3.377,5.231H28.928c.043-.731.081-1.37.127-2.144-.673-.238-1.37-.468-2.056-.73a2.164,2.164,0,0,1-1.539-2.882c.55-1.891,1.168-3.765,1.837-5.618.547-1.517,1.575-1.961,3.3-1.282a1.793,1.793,0,0,0,2.661-.956A42.724,42.724,0,0,1,36.206,12.7c-.4-.586-.877-1.219-1.3-1.886a2.02,2.02,0,0,1,.49-2.981q2.4-1.847,4.9-3.566a2.12,2.12,0,0,1,3.107.537c.442.543.835,1.126,1.244,1.684,2.013-.622,3.978-1.2,5.915-1.859a1.359,1.359,0,0,0,.608-.9,8.9,8.9,0,0,0,.038-1.4A2.181,2.181,0,0,1,53.645.015c1.786-.024,3.573-.013,5.36,0,1.9.01,2.734.736,2.642,2.639-.069,1.424.31,2.059,1.794,2.334a35.789,35.789,0,0,1,4.752,1.557c.4-.533.806-1.1,1.24-1.648a2.156,2.156,0,0,1,3.311-.522c1.465,1.019,2.9,2.084,4.332,3.149,1.608,1.194,1.83,2.238.543,3.783-.89,1.067-.934,1.789.055,2.807a16.161,16.161,0,0,1,2.212,3.081c.486.823.96,1.209,1.889.708a4.062,4.062,0,0,1,1.071-.34,2.09,2.09,0,0,1,2.708,1.389c.67,1.9,1.32,3.814,1.878,5.751a2.147,2.147,0,0,1-1.57,2.86c-.652.245-1.317.455-1.921.662v6.807c.535.182,1.151.381,1.76.6,1.663.6,2.159,1.588,1.625,3.3-.516,1.657-1.048,3.311-1.606,4.954-.577,1.7-1.613,2.321-3.256,1.639-1.488-.618-2.249-.265-2.958,1.113a13.863,13.863,0,0,1-2.186,2.927c-.651.71-.558,1.2-.031,1.915,1.708,2.319,1.578,2.95-.785,4.666-1.178.856-2.353,1.717-3.543,2.557-1.552,1.1-2.579.925-3.713-.589-.362-.483-.719-.97-1.032-1.393l-6.58,2.13-.477-2.177c2.243-.82,4.318-1.7,6.471-2.291a3.229,3.229,0,0,1,2.216.745,8.564,8.564,0,0,1,1.491,1.887l4.681-3.363c-.4-.562-.759-1.089-1.145-1.6a2.387,2.387,0,0,1,.1-3.308c1.228-1.535,2.366-3.148,3.457-4.784a2.383,2.383,0,0,1,3.115-1.127c.569.209,1.161.354,1.866.564l1.758-5.319c-.112-.111-.164-.2-.241-.233-3.445-1.36-3.425-1.359-3.295-5.149.043-1.266-.019-2.537-.077-3.8-.088-1.92.214-2.395,2-3.015.526-.182,1.045-.381,1.643-.6l-1.842-5.606" transform="translate(-18.154 0)" fill="#fff"/>
    <path id="Path_3770" data-name="Path 3770" d="M58.012,53.24l-2.029-.09c-.146-8.04,6.422-19.766,20.007-21.315a22.555,22.555,0,0,1,7.189,44.475l-.522-2.088A20.3,20.3,0,0,0,96.67,63.148a19.967,19.967,0,0,0,1.48-13.592A20.373,20.373,0,0,0,58.012,53.24" transform="translate(-40.12 -22.711)" fill="#fff"/>
    <path id="Path_3771" data-name="Path 3771" d="M11.861,121.814V119.54c2.642,0,5.219-.059,7.788.057.436.02,1.076.72,1.215,1.22.592,2.122,1.106,4.274,1.5,6.443.191,1.062.615,1.336,1.655,1.33,7.569-.044,15.139-.025,22.709-.023,2.7,0,3.546,1.129,2.8,3.736-1.211,4.241-2.454,8.474-3.621,12.727a1.9,1.9,0,0,1-2.181,1.632q-8.815-.095-17.63.007A1.82,1.82,0,0,1,24,144.959q-2.4-10.787-4.863-21.561c-.112-.5-.261-.984-.422-1.584Zm11.354,9.064L26.27,144.32h17.4l3.826-13.443Z" transform="translate(-8.5 -85.661)" fill="#fff"/>
    <path id="Path_3772" data-name="Path 3772" d="M123.1,68.218c0-2.252.038-4.506-.015-6.757-.03-1.282.5-1.789,1.763-1.727,1.217.06,2.44.02,3.66.012.92-.007,1.388.407,1.386,1.357q-.012,7.11,0,14.219a1.2,1.2,0,0,1-1.382,1.367c-1.267-.005-2.535-.025-3.8.015-1.13.036-1.626-.441-1.608-1.587.036-2.3.01-4.6.01-6.9Zm4.413-6.123H125.48v12.29h2.035Z" transform="translate(-88.213 -42.806)" fill="#fff"/>
    <rect id="Rectangle_2095" data-name="Rectangle 2095" width="29.195" height="2.139" transform="translate(23.709 36.207)" fill="#fff"/>
    <path id="Path_3773" data-name="Path 3773" d="M161.833,85.23c0,1.406-.021,2.813.008,4.219.022,1.04-.38,1.584-1.48,1.558-1.312-.031-2.625-.014-3.937-.007a1.2,1.2,0,0,1-1.371-1.376q.01-4.289,0-8.578c0-.947.486-1.351,1.4-1.343,1.312.011,2.625.016,3.937,0,1-.014,1.457.454,1.443,1.451-.02,1.359-.005,2.719,0,4.078m-2.356-3.193h-2.063v6.621h2.063Z" transform="translate(-111.123 -57.119)" fill="#fff"/>
    <path id="Path_3774" data-name="Path 3774" d="M91.276,95.545c0-4.378-.432-3.9,3.9-3.906.422,0,.845.023,1.264,0,1.111-.069,1.655.389,1.629,1.551-.036,1.639-.012,3.279,0,4.918.008.992-.451,1.462-1.453,1.447-1.264-.02-2.531-.036-3.794.006-1.166.039-1.607-.511-1.552-1.624.039-.794.008-1.592.007-2.389m4.438-1.532H93.62v3.2h2.094Z" transform="translate(-65.407 -65.667)" fill="#fff"/>
    <path id="Path_3775" data-name="Path 3775" d="M70.2,226.6a3.386,3.386,0,1,1-3.339-3.43A3.346,3.346,0,0,1,70.2,226.6m-1.837,0c-.682-.53-1.139-1.141-1.463-1.077-.448.088-.8.685-1.186,1.063.367.355.707.953,1.108,1,.381.041.825-.5,1.542-.983" transform="translate(-45.46 -159.942)" fill="#fff"/>
    <path id="Path_3776" data-name="Path 3776" d="M102.661,229.915a3.389,3.389,0,1,1,3.4-3.373,3.346,3.346,0,0,1-3.4,3.373m1.561-3.3c-.668-.548-1.063-1.123-1.448-1.117-.4.007-.8.572-1.194.894.354.412.645,1.038,1.082,1.164.318.093.828-.472,1.559-.941" transform="translate(-71.156 -159.916)" fill="#fff"/>
    <rect id="Rectangle_2096" data-name="Rectangle 2096" width="6.618" height="2.139" transform="translate(2.233 44.086)" fill="#fff"/>
    <rect id="Rectangle_2097" data-name="Rectangle 2097" width="6.618" height="2.094" transform="translate(0 50.883)" fill="#fff"/>
    <rect id="Rectangle_2098" data-name="Rectangle 2098" width="6.609" height="2.102" transform="translate(5.624 57.682)" fill="#fff"/>
  </g>
</svg>
