<svg xmlns="http://www.w3.org/2000/svg" width="70" height="70" viewBox="0 0 70 70">
  <g id="Icon" transform="translate(-6 -6)">
    <path id="Path_4276" data-name="Path 4276" d="M57.9,39.793a18.1,18.1,0,1,1-18.1,18.1A18.112,18.112,0,0,1,57.9,39.793Zm0,2.414A15.69,15.69,0,1,0,73.586,57.9,15.7,15.7,0,0,0,57.9,42.207ZM50.889,58.7,61.313,44.51a1.207,1.207,0,0,1,2.155.958l-1.9,9.194h2.359a1.207,1.207,0,0,1,.984,1.905l-10.423,14.7a1.207,1.207,0,0,1-2.142-1.04l2.834-9.6H51.862a1.207,1.207,0,0,1-.973-1.921Zm3.356-.492H56.8a1.207,1.207,0,0,1,1.157,1.548l-1.238,4.2L61.6,57.076H60.091a1.207,1.207,0,0,1-1.182-1.451l1.078-5.234Zm-16.224,4.8-.086.167a8.041,8.041,0,0,1-1.509,2.191,3.364,3.364,0,0,1-2.331.981H9.319a3.319,3.319,0,0,1,0-6.638h17.2a1.207,1.207,0,1,0,0-2.414H9.621a3.621,3.621,0,1,1,0-7.241H21.086V48.089a3.261,3.261,0,0,1-1.2-.609,3.573,3.573,0,0,1-1.212-2.859H13.845a1.207,1.207,0,0,1-1.207-1.207V41a4.985,4.985,0,0,1-3.25-1.577,4.985,4.985,0,0,1-1.577-3.25V24.1h-.6A1.207,1.207,0,0,1,6,22.9V15.655a1.207,1.207,0,0,1,1.207-1.207h4.224V8.414A2.414,2.414,0,0,1,13.845,6h1.207a2.414,2.414,0,0,1,2.414,2.414v6.034h9.655V8.414A2.414,2.414,0,0,1,29.534,6h1.207a2.414,2.414,0,0,1,2.414,2.414v6.034h4.224a1.207,1.207,0,0,1,1.207,1.207V22.9A1.207,1.207,0,0,1,37.379,24.1h-.6V36.172A5.517,5.517,0,0,1,31.948,41v2.414a1.207,1.207,0,0,1-1.207,1.207H25.914A3.573,3.573,0,0,1,24.7,47.48a3.261,3.261,0,0,1-1.2.609v2.566a1.811,1.811,0,0,1-1.81,1.81H9.621a1.207,1.207,0,0,0,0,2.414h16.9a3.621,3.621,0,1,1,0,7.241H9.319a.905.905,0,0,0,0,1.81H34.1a1.2,1.2,0,0,0,.876-.534,6.69,6.69,0,0,0,.818-1.328L37.4,58.928A20.461,20.461,0,0,0,38.022,63.006ZM15.052,14.448V8.414H13.845v6.034Zm6.034,30.172a1.2,1.2,0,0,0,.32.985,1.386,1.386,0,0,0,.887.221,1.386,1.386,0,0,0,.887-.221,1.2,1.2,0,0,0,.32-.985ZM36.172,16.862H8.414V21.69H36.172Zm-5.431-2.414V8.414H29.534v6.034ZM10.224,24.1V36.172a2.5,2.5,0,0,0,.87,1.544,2.5,2.5,0,0,0,1.544.87h19.31a2.5,2.5,0,0,0,1.544-.87,2.5,2.5,0,0,0,.87-1.544V24.1ZM15.052,41v1.207H29.534V41Zm27.967,2.774C41,37.093,40.468,31.965,41.558,27.5c1.836-7.515,8.325-13.239,20.7-21.308a1.206,1.206,0,0,1,1.821.683C67.5,19,66.321,30.068,61.022,37.616a20.614,20.614,0,0,0-2.881-.236q.216-.267.425-.541l-8.838-2.528q-1.01,2.787-1.848,5.68a20.616,20.616,0,0,0-4.861,3.784Zm16.957-9.042a26.022,26.022,0,0,0,3.126-8.79l-9.326-1.063q-1.743,3.49-3.191,7.166Zm3.449-11.182a41.828,41.828,0,0,0-.869-12.811,91.494,91.494,0,0,0-7.593,11.847Zm-4.1-12.5A76.329,76.329,0,0,0,50.5,17.893l2.57,3.124A93.625,93.625,0,0,1,59.326,11.053ZM48.778,19.6a19.738,19.738,0,0,0-4.461,7.063L48.558,30.6q1.494-3.727,3.29-7.266Zm-5.138,9.776c-.559,3.482-.085,7.425,1.275,12.281q1.16-4.433,2.709-8.627Z" transform="translate(0)" fill="#0a00b7" fill-rule="evenodd"/>
  </g>
</svg>
