<svg xmlns="http://www.w3.org/2000/svg" width="69.68" height="70" viewBox="0 0 69.68 70">
  <path id="excellence_12876071" d="M40.323,13.889a21.189,21.189,0,0,0-9.89,39.932v14.15a2.025,2.025,0,0,0,3.336,1.542l6.553-5.575,6.553,5.577a2.025,2.025,0,0,0,3.335-1.542V53.822a21.19,21.19,0,0,0-9.886-39.933Zm7.7,53.732-6.389-5.437a2.008,2.008,0,0,0-2.624,0l-6.391,5.439v-12.8a21.191,21.191,0,0,0,15.4,0Zm-7.7-13.532a19.007,19.007,0,1,1,19-19.009,19.03,19.03,0,0,1-19,19.009Zm0-34.467A15.458,15.458,0,1,0,55.778,35.08,15.476,15.476,0,0,0,40.323,19.621Zm0,28.732A13.274,13.274,0,1,1,53.592,35.08,13.289,13.289,0,0,1,40.323,48.354ZM43.8,31.174l-1.615-5a1.955,1.955,0,0,0-3.72,0l-1.615,5-5.255-.007A1.953,1.953,0,0,0,30.444,34.7L34.7,37.783l-1.632,4.99a1.946,1.946,0,0,0,.7,2.192l.012.01a1.962,1.962,0,0,0,1.142.366,1.94,1.94,0,0,0,1.151-.377l4.248-3.094,4.24,3.093a1.953,1.953,0,0,0,3.01-2.182l-1.634-5L50.2,34.705a1.954,1.954,0,0,0-1.148-3.538Zm.72,4.94a1.966,1.966,0,0,0-.705,2.19l1.461,4.469L41.471,40a1.947,1.947,0,0,0-2.3,0l-3.8,2.77L36.832,38.3a1.967,1.967,0,0,0-.715-2.187l-3.812-2.756L37,33.36a1.939,1.939,0,0,0,1.873-1.353l1.446-4.476L41.765,32a1.935,1.935,0,0,0,1.844,1.358h.021l4.7-.007Zm-23.09,17.05H19.011a.023.023,0,0,1-.023-.021c-.063-5.169-1.79-6.983-3.226-7.6a3.638,3.638,0,0,0-3.862.67c-.886.833-.777,2.064-.67,3.255.165,1.853.349,3.925-2.443,5.678a2.283,2.283,0,0,0-1.948-1.1H3.456A2.288,2.288,0,0,0,1.17,56.341V67.711A2.288,2.288,0,0,0,3.456,70H6.84a2.283,2.283,0,0,0,1.837-.931,4.48,4.48,0,0,0,2.252.574h9.258A4.61,4.61,0,0,0,24.4,66.972c1.017-2.153,3.185-8.474,1.046-11.825a4.414,4.414,0,0,0-4.015-1.984ZM6.939,67.711a.107.107,0,0,1-.1.1H3.456a.107.107,0,0,1-.1-.1V56.341a.1.1,0,0,1,.1-.1H6.84a.1.1,0,0,1,.1.1V67.711Zm15.478-1.671a2.415,2.415,0,0,1-2.231,1.415H10.927a2.315,2.315,0,0,1-1.5-.507l-.3-.23V57.474c4.791-2.509,4.475-6.047,4.282-8.2a4.686,4.686,0,0,1-.011-1.467,1.46,1.46,0,0,1,1.509-.252c.552.235,1.844,1.254,1.9,5.611a2.216,2.216,0,0,0,2.209,2.179h2.458a2.226,2.226,0,0,1,2.129.975c1.277,2,.134,6.927-1.183,9.716ZM39.23,9.7V1.092a1.092,1.092,0,1,1,2.185,0V9.7a1.092,1.092,0,1,1-2.185,0ZM22.379,6.193A1.093,1.093,0,1,1,24.271,5.1l4.305,7.456a1.092,1.092,0,1,1-1.892,1.092ZM9.939,17.541a1.1,1.1,0,0,1,1.493-.4l7.461,4.305A1.093,1.093,0,1,1,17.8,23.339L10.34,19.034a1.092,1.092,0,0,1-.4-1.493Zm42.125-4.985L56.369,5.1a1.093,1.093,0,0,1,1.892,1.094L53.956,13.65a1.093,1.093,0,1,1-1.892-1.094ZM70.3,19.034l-7.461,4.305a1.093,1.093,0,0,1-1.092-1.894l7.461-4.305A1.093,1.093,0,1,1,70.3,19.034Z" transform="translate(-1.17)"/>
</svg>
