<svg xmlns="http://www.w3.org/2000/svg" width="69.949" height="70" viewBox="0 0 69.949 70">
  <g id="Layer_x0020_1" transform="translate(-1.25 -1.25)">
    <path id="Path_4299" data-name="Path 4299" d="M492.784,510.614a17.807,17.807,0,1,1,17.831-17.831A17.84,17.84,0,0,1,492.784,510.614Zm0-33.733a15.925,15.925,0,1,0,15.949,15.9A15.942,15.942,0,0,0,492.784,476.882Z" transform="translate(-456.583 -456.58)" fill="#000034" fill-rule="evenodd"/>
    <path id="Path_4300" data-name="Path 4300" d="M1012.337,356.125a2.731,2.731,0,0,1-2.729-2.729v-7.01a1.979,1.979,0,0,0-1.976-1.929h-7.951c-3.576,0-3.576-5.457,0-5.457h7.951a7.409,7.409,0,0,1,7.433,7.386v7.01A2.731,2.731,0,0,1,1012.337,356.125Zm-12.656-15.243a.847.847,0,0,0,0,1.694h7.951a3.835,3.835,0,0,1,3.858,3.811v7.01a.847.847,0,1,0,1.694,0v-7.01a5.552,5.552,0,0,0-5.552-5.5Z" transform="translate(-956.627 -324.44)" fill="#000034" fill-rule="evenodd"/>
    <path id="Path_4301" data-name="Path 4301" d="M328.729,356.125A2.731,2.731,0,0,1,326,353.4v-7.01A7.369,7.369,0,0,1,333.386,339h7.951c3.623,0,3.623,5.457,0,5.457h-7.951a1.938,1.938,0,0,0-1.929,1.929v7.01A2.731,2.731,0,0,1,328.729,356.125Zm4.658-15.243a5.482,5.482,0,0,0-5.5,5.5v7.01a.847.847,0,1,0,1.694,0v-7.01a3.8,3.8,0,0,1,3.811-3.811h7.951a.847.847,0,0,0,0-1.694Z" transform="translate(-311.99 -324.44)" fill="#000034" fill-rule="evenodd"/>
    <path id="Path_4302" data-name="Path 4302" d="M1007.633,1021.125h-7.951c-3.576,0-3.576-5.457,0-5.457h7.951a1.988,1.988,0,0,0,1.976-1.976v-7.01c0-3.576,5.457-3.576,5.457,0v7.01A7.449,7.449,0,0,1,1007.633,1021.125Zm-7.951-3.576a.847.847,0,0,0,0,1.694h7.951a5.562,5.562,0,0,0,5.552-5.552v-7.01a.848.848,0,0,0-1.694,0v7.01a3.875,3.875,0,0,1-3.858,3.858Z" transform="translate(-956.627 -963.234)" fill="#000034" fill-rule="evenodd"/>
    <path id="Path_4303" data-name="Path 4303" d="M341.337,1021.125h-7.951a7.409,7.409,0,0,1-7.386-7.433v-7.01c0-3.576,5.457-3.576,5.457,0v7.01a1.948,1.948,0,0,0,1.929,1.976h7.951C344.96,1015.668,344.96,1021.125,341.337,1021.125Zm-12.609-15.29a.843.843,0,0,0-.847.847v7.01a5.522,5.522,0,0,0,5.5,5.552h7.951a.847.847,0,1,0,0-1.694h-7.951a3.835,3.835,0,0,1-3.811-3.858v-7.01A.843.843,0,0,0,328.729,1005.835Z" transform="translate(-311.99 -963.234)" fill="#000034" fill-rule="evenodd"/>
    <path id="Path_4304" data-name="Path 4304" d="M744.2,21.374a.792.792,0,0,1-.706-.329l-4.469-5.6a.934.934,0,0,1,.753-1.505h1.694V3.967c0-3.623,5.5-3.623,5.5,0v9.974c1.129,0,2.164-.235,2.541.518a.947.947,0,0,1-.141.988l-4.422,5.6A.936.936,0,0,1,744.2,21.374ZM741.7,15.823l2.493,3.105,2.493-3.105c-.518,0-1.6.094-1.6-.941V3.967a.87.87,0,1,0-1.741,0V14.882C743.35,15.917,742.268,15.823,741.7,15.823Z" transform="translate(-707.994)" fill="#000034" fill-rule="evenodd"/>
    <path id="Path_4305" data-name="Path 4305" d="M1284.016,749.607a.868.868,0,0,1-.565-.235l-5.6-4.422a.93.93,0,0,1,0-1.458l5.6-4.469a.934.934,0,0,1,1.505.753v1.694h9.974c3.623,0,3.623,5.5,0,5.5h-9.974C1284.957,748.054,1285.239,749.607,1284.016,749.607Zm-4.093-5.41,3.152,2.493c0-.518-.094-1.6.941-1.6h10.915a.871.871,0,0,0,0-1.741h-10.915c-1.035,0-.941-1.082-.941-1.647Z" transform="translate(-1226.449 -707.995)" fill="#000034" fill-rule="evenodd"/>
    <path id="Path_4306" data-name="Path 4306" d="M744.318,1297.707a2.771,2.771,0,0,1-2.729-2.776v-9.974c-1.129,0-2.211.235-2.541-.517a.937.937,0,0,1,.094-.988l4.469-5.6a.93.93,0,0,1,1.458,0l4.375,5.5a.928.928,0,0,1-.659,1.6h-1.694v9.974A2.781,2.781,0,0,1,744.318,1297.707Zm-2.493-14.631c.565,0,1.647-.094,1.647.941v10.915a.871.871,0,0,0,1.741,0v-10.915c0-1.035,1.082-.941,1.6-.941l-2.493-3.152Z" transform="translate(-708.118 -1226.457)" fill="#000034" fill-rule="evenodd"/>
    <path id="Path_4307" data-name="Path 4307" d="M14.882,749.328c-1.223,0-.941-1.553-.941-2.635H3.967c-3.623,0-3.623-5.5,0-5.5h9.974c0-1.176-.235-2.211.518-2.541a.851.851,0,0,1,.988.094l5.6,4.469a.93.93,0,0,1,0,1.458l-5.6,4.422A.977.977,0,0,1,14.882,749.328ZM3.967,743.07a.87.87,0,1,0,0,1.741H14.882c1.035,0,.941,1.082.941,1.6l3.105-2.493-3.105-2.493c0,.565.094,1.647-.941,1.647Z" transform="translate(0 -707.714)" fill="#000034" fill-rule="evenodd"/>
    <path id="Path_4308" data-name="Path 4308" d="M833.941,1047.842a.944.944,0,0,1-.941-.941v-7.2a.941.941,0,1,1,1.882,0v7.2A.944.944,0,0,1,833.941,1047.842Z" transform="translate(-797.737 -995.72)" fill="#000034" fill-rule="evenodd"/>
    <path id="Path_4309" data-name="Path 4309" d="M776.056,954.056a.958.958,0,0,1-.753-.423l-2.87-4.281a.933.933,0,0,1,1.553-1.035l2.07,3.105,2.07-3.105a.953.953,0,0,1,1.6,1.035l-2.87,4.281A1.048,1.048,0,0,1,776.056,954.056Z" transform="translate(-739.854 -908.263)" fill="#000034" fill-rule="evenodd"/>
    <path id="Path_4310" data-name="Path 4310" d="M721.1,728.068c-3.576,0-6.492-3.293-6.492-7.339,0-1.035-.235-2.541.941-2.541,1.223,0,.941,1.506.941,2.541,0,3.011,2.07,5.457,4.611,5.457,2.588,0,4.658-2.446,4.658-5.457,0-1.176-.282-2.729.941-2.729s.941,1.553.941,2.729C727.643,724.775,724.726,728.068,721.1,728.068Z" transform="translate(-684.903 -687.954)" fill="#000034" fill-rule="evenodd"/>
    <path id="Path_4311" data-name="Path 4311" d="M779.634,878.887a.944.944,0,0,1-.941-.941v-3.529a.941.941,0,0,1,1.882,0v3.529A.944.944,0,0,1,779.634,878.887Zm-5.693,0a.944.944,0,0,1-.941-.941v-3.529a.941.941,0,0,1,1.882,0v3.529A.944.944,0,0,1,773.941,878.887Z" transform="translate(-740.563 -836.832)" fill="#000034" fill-rule="evenodd"/>
    <path id="Path_4312" data-name="Path 4312" d="M709.536,564.128a1,1,0,0,1-.941-.753c-.753-3.858-.47-8.28,4.328-8.8,3.34-.518,7.1-.376,8.751,3.387a13.342,13.342,0,0,1-.094,5.222c-.471,2.164-4.422-.706-5.552-1.741A15.454,15.454,0,0,1,709.536,564.128Zm5.787-7.951c-4.234,0-5.646,1.411-5.034,5.881,4.328-1.176,5.41-3.529,6.492-2.446a12.97,12.97,0,0,0,3.105,2.305,14.317,14.317,0,0,0,0-3.293C719.133,557.024,717.628,556.177,715.323,556.177Z" transform="translate(-678.882 -530.872)" fill="#000034" fill-rule="evenodd"/>
    <path id="Path_4313" data-name="Path 4313" d="M609.941,956.712a.944.944,0,0,1-.941-.941v-3.152c0-4.422,9.6-7.151,9.6-4.611,0,1.082-1.129.941-1.741.941-2.352,0-5.975,1.976-5.975,3.67C610.882,954.642,611.258,956.712,609.941,956.712Zm21.124,0c-1.505,0-.8-2.305-.941-4-.376-1.882-3.764-3.764-6.022-3.764-.565,0-1.694.141-1.694-.941,0-2.682,9.55.518,9.6,4.611v3.152A.944.944,0,0,1,631.065,956.712Z" transform="translate(-584.279 -907.74)" fill="#000034" fill-rule="evenodd"/>
  </g>
</svg>
