<svg xmlns="http://www.w3.org/2000/svg" width="70.435" height="70" viewBox="0 0 70.435 70">
  <path id="leadership_17048274" d="M74.765,77H6.588a1.129,1.129,0,0,1-1.123-1.25A15.491,15.491,0,0,1,16.066,62.7a8.377,8.377,0,0,1,3.651-15.18V36.961a4.349,4.349,0,0,1,4.349-4.349h0a4.349,4.349,0,0,1,4.349,4.349v7.934a1.461,1.461,0,0,0,.513,1.112l7.112,6.062a1.461,1.461,0,0,0,.948.349h7.377a1.461,1.461,0,0,0,.948-.349l7.112-6.062a1.461,1.461,0,0,0,.513-1.112V36.961a4.349,4.349,0,0,1,4.349-4.349h0a4.349,4.349,0,0,1,4.349,4.349V47.518A8.377,8.377,0,0,1,65.29,62.7a15.482,15.482,0,0,1,10.6,13.053A1.129,1.129,0,0,1,74.765,77ZM20.846,64.2A13.218,13.218,0,0,0,7.906,74.742H30.728v-6.1A13.179,13.179,0,0,0,20.846,64.2Zm-.628-14.471a6.122,6.122,0,1,0,6.75,6.09c0-.02,0-.039,0-.059L21.023,50.7A3.719,3.719,0,0,1,20.218,49.732Zm40.913,0a3.721,3.721,0,0,1-.813.969l-5.929,5.012c0,.036,0,.073,0,.11a6.12,6.12,0,1,0,6.743-6.091ZM52.3,57.483l-1.5,1.265a.6.6,0,0,0-.212.456v6.34A15.438,15.438,0,0,1,55.727,62.7,8.411,8.411,0,0,1,52.3,57.483ZM50.588,68.69v6.052h22.86a13.212,13.212,0,0,0-22.86-6.052ZM48.33,74.742V59.2a2.856,2.856,0,0,1,1.012-2.181l9.518-8.047a1.46,1.46,0,0,0,.518-1.115v-10.9a2.09,2.09,0,0,0-2.091-2.091h0A2.091,2.091,0,0,0,55.2,36.961v7.934a3.719,3.719,0,0,1-1.307,2.83l-7.112,6.062a3.719,3.719,0,0,1-2.412.889H36.988a3.719,3.719,0,0,1-2.412-.889l-7.112-6.062a3.719,3.719,0,0,1-1.307-2.83V36.961a2.091,2.091,0,0,0-2.091-2.091h0a2.09,2.09,0,0,0-2.091,2.091V47.867a1.461,1.461,0,0,0,.513,1.112l9.494,8.092a2.856,2.856,0,0,1,1,2.173v15.5Zm-17.6-9.231V59.244a.6.6,0,0,0-.21-.455l-1.468-1.251a8.41,8.41,0,0,1-3.42,5.16,15.438,15.438,0,0,1,5.1,2.813Zm9.949-30.148a7.543,7.543,0,1,1-7.342,7.54A7.447,7.447,0,0,1,40.677,35.363Zm0,2.258A5.286,5.286,0,1,0,45.761,42.9,5.188,5.188,0,0,0,40.677,37.621ZM44.094,9.327a12.1,12.1,0,0,1,2.446,1.014l1.568-.7a1.129,1.129,0,0,1,1.257.233l2.468,2.468a1.129,1.129,0,0,1,.234,1.256l-.695,1.569a12.079,12.079,0,0,1,1.015,2.451l1.6.615a1.129,1.129,0,0,1,.723,1.054V22.78a1.129,1.129,0,0,1-.723,1.054l-1.6.616A12.2,12.2,0,0,1,51.371,26.9l.7,1.57a1.129,1.129,0,0,1-.234,1.256l-2.468,2.468a1.129,1.129,0,0,1-1.255.234l-1.568-.694a12.07,12.07,0,0,1-2.448,1.014l-.615,1.6a1.129,1.129,0,0,1-1.054.724H38.933a1.129,1.129,0,0,1-1.054-.724l-.615-1.6a12.186,12.186,0,0,1-2.45-1.015l-1.57.7a1.129,1.129,0,0,1-1.255-.234L29.52,29.721a1.129,1.129,0,0,1-.233-1.257l.7-1.568a12.18,12.18,0,0,1-1.015-2.446l-1.6-.616a1.129,1.129,0,0,1-.723-1.054V19.289a1.129,1.129,0,0,1,.723-1.054l1.6-.616a12.189,12.189,0,0,1,1.016-2.449l-.7-1.568a1.129,1.129,0,0,1,.233-1.257l2.468-2.468a1.129,1.129,0,0,1,1.257-.233l1.568.7a12.1,12.1,0,0,1,2.447-1.014l.619-1.6A1.129,1.129,0,0,1,38.933,7h3.491a1.129,1.129,0,0,1,1.054.724Zm-1.9,1.349-.545-1.417H39.707l-.547,1.419a1.129,1.129,0,0,1-.792.692,9.852,9.852,0,0,0-2.893,1.2,1.129,1.129,0,0,1-1.051.07l-1.387-.617-1.371,1.371.617,1.387a1.129,1.129,0,0,1-.071,1.051,9.936,9.936,0,0,0-1.2,2.9,1.129,1.129,0,0,1-.692.79l-1.414.544V22l1.414.544a1.128,1.128,0,0,1,.692.789,9.914,9.914,0,0,0,1.2,2.895,1.129,1.129,0,0,1,.071,1.053l-.617,1.387,1.372,1.372,1.388-.615a1.129,1.129,0,0,1,1.047.07,9.922,9.922,0,0,0,2.9,1.2,1.129,1.129,0,0,1,.793.693l.544,1.414h1.941l.544-1.414a1.129,1.129,0,0,1,.793-.693,9.813,9.813,0,0,0,2.891-1.2,1.129,1.129,0,0,1,1.051-.072l1.388.615,1.373-1.373-.615-1.387a1.129,1.129,0,0,1,.07-1.047,9.947,9.947,0,0,0,1.2-2.9,1.129,1.129,0,0,1,.693-.793L52.451,22V20.064l-1.414-.544a1.129,1.129,0,0,1-.693-.793,9.833,9.833,0,0,0-1.2-2.9,1.129,1.129,0,0,1-.071-1.05l.615-1.387-1.372-1.372-1.387.617a1.129,1.129,0,0,1-1.051-.07,9.852,9.852,0,0,0-2.893-1.2,1.129,1.129,0,0,1-.793-.694Zm-1.516,3.139a7.22,7.22,0,1,1-7.219,7.219A7.22,7.22,0,0,1,40.677,13.814Zm0,2.258a4.962,4.962,0,1,0,4.964,4.961A4.959,4.959,0,0,0,40.677,16.072Z" transform="translate(-5.459 -7)" fill="#000034" fill-rule="evenodd"/>
</svg>
