<svg xmlns="http://www.w3.org/2000/svg" width="76.236" height="76.219" viewBox="0 0 76.236 76.219">
  <g id="social-revolution_12401652" transform="translate(-6.483 -6.5)">
    <path id="Path_4314" data-name="Path 4314" d="M19.4,54.716l2.441,5.111a1.094,1.094,0,0,0,.835.612l5.713.8a1.093,1.093,0,0,1,.587,1.888l-4.159,3.817a1.094,1.094,0,0,0-.335,1.008l1.078,5.714a1.093,1.093,0,0,1-1.614,1.154l-4.992-2.832a1.093,1.093,0,0,0-1.079,0l-4.992,2.832a1.093,1.093,0,0,1-1.614-1.154l1.078-5.714a1.094,1.094,0,0,0-.335-1.008L7.856,63.13a1.093,1.093,0,0,1,.587-1.888l5.713-.8a1.094,1.094,0,0,0,.835-.612l2.441-5.111A1.093,1.093,0,0,1,19.4,54.716Z" transform="translate(0 -39.636)" fill="none" stroke="#000" stroke-linecap="round" stroke-linejoin="round" stroke-width="2"/>
    <path id="Path_4315" data-name="Path 4315" d="M185.314,9.182l1.856,3.887a.832.832,0,0,0,.635.465l4.345.61a.832.832,0,0,1,.447,1.436l-3.163,2.9a.832.832,0,0,0-.255.767L190,23.6a.832.832,0,0,1-1.228.877l-3.8-2.154a.832.832,0,0,0-.821,0l-3.8,2.154a.832.832,0,0,1-1.228-.877l.82-4.345a.832.832,0,0,0-.255-.767l-3.163-2.9a.832.832,0,0,1,.447-1.436l4.345-.61a.832.832,0,0,0,.635-.465l1.856-3.887A.832.832,0,0,1,185.314,9.182Z" transform="translate(-143.56 -1.028)" fill="none" stroke="#000" stroke-linecap="round" stroke-linejoin="round" stroke-width="2"/>
    <path id="Path_4316" data-name="Path 4316" d="M468.423,115.19l-.142-7.4a6.671,6.671,0,0,1,2.007-4.919,11.167,11.167,0,0,0,3.4-8.038V85.156" transform="translate(-391.97 -66.059)" fill="none" stroke="#000" stroke-linecap="round" stroke-linejoin="round" stroke-width="2"/>
    <path id="Path_4317" data-name="Path 4317" d="M318.125,95.729v8.1a11.167,11.167,0,0,0,3.4,8.038,6.671,6.671,0,0,1,2.007,4.919l-.754,39.229a.747.747,0,0,0,.746.761h17.032a.747.747,0,0,0,.747-.761l-.51-26.52" transform="translate(-264.238 -75.053)" fill="none" stroke="#000" stroke-linecap="round" stroke-linejoin="round" stroke-width="2"/>
    <path id="Path_4318" data-name="Path 4318" d="M322.843,36.127h-2.478a2.24,2.24,0,0,1-2.24-2.24V25.271a2.24,2.24,0,0,1,2.24-2.24h2.478a2.24,2.24,0,0,1,2.24,2.24v8.616A2.24,2.24,0,0,1,322.843,36.127Z" transform="translate(-264.238 -13.212)" fill="none" stroke="#000" stroke-linecap="round" stroke-linejoin="round" stroke-width="2"/>
    <path id="Path_4319" data-name="Path 4319" d="M369.436,22.916h-2.478a2.24,2.24,0,0,1-2.24-2.24V9.74a2.24,2.24,0,0,1,2.24-2.24h2.478a2.24,2.24,0,0,1,2.24,2.24V20.676A2.24,2.24,0,0,1,369.436,22.916Z" transform="translate(-303.873)" fill="none" stroke="#000" stroke-linecap="round" stroke-linejoin="round" stroke-width="2"/>
    <path id="Path_4320" data-name="Path 4320" d="M418.27,19.1h-6.958V9.74a2.24,2.24,0,0,1,2.24-2.24h2.478a2.24,2.24,0,0,1,2.24,2.24Z" transform="translate(-343.509)" fill="none" stroke="#000" stroke-linecap="round" stroke-linejoin="round" stroke-width="2"/>
    <path id="Path_4321" data-name="Path 4321" d="M464.864,19.1h-6.958V9.74a2.24,2.24,0,0,1,2.24-2.24h2.478a2.24,2.24,0,0,1,2.24,2.24Z" transform="translate(-383.145)" fill="none" stroke="#000" stroke-linecap="round" stroke-linejoin="round" stroke-width="2"/>
    <path id="Path_4322" data-name="Path 4322" d="M420.59,92.114h-5.465a3.812,3.812,0,0,1-3.812-3.812V85.156h13.916" transform="translate(-343.51 -66.059)" fill="none" stroke="#000" stroke-linecap="round" stroke-linejoin="round" stroke-width="2"/>
    <path id="Path_4323" data-name="Path 4323" d="M433.8,131.75a6.958,6.958,0,0,0-6.958,6.958" transform="translate(-356.722 -105.695)" fill="none" stroke="#000" stroke-linecap="round" stroke-linejoin="round" stroke-width="2"/>
    <path id="Path_4324" data-name="Path 4324" d="M165.958,166.367h-1.652a1.493,1.493,0,0,1-1.493-1.493v-5.744a1.493,1.493,0,0,1,1.493-1.493h1.652a1.493,1.493,0,0,1,1.493,1.493v5.744A1.493,1.493,0,0,1,165.958,166.367Z" transform="translate(-132.12 -127.716)" fill="none" stroke="#000" stroke-linecap="round" stroke-linejoin="round" stroke-width="2"/>
    <path id="Path_4325" data-name="Path 4325" d="M197.021,157.558h-1.652a1.493,1.493,0,0,1-1.493-1.493v-7.29a1.493,1.493,0,0,1,1.493-1.493h1.652a1.493,1.493,0,0,1,1.493,1.493v7.29A1.493,1.493,0,0,1,197.021,157.558Z" transform="translate(-158.544 -118.907)" fill="none" stroke="#000" stroke-linecap="round" stroke-linejoin="round" stroke-width="2"/>
    <path id="Path_4326" data-name="Path 4326" d="M229.577,155.012h-4.639v-6.238a1.493,1.493,0,0,1,1.493-1.493h1.652a1.493,1.493,0,0,1,1.493,1.493Z" transform="translate(-184.967 -118.907)" fill="none" stroke="#000" stroke-linecap="round" stroke-linejoin="round" stroke-width="2"/>
    <path id="Path_4327" data-name="Path 4327" d="M260.639,155.012H256v-6.238a1.493,1.493,0,0,1,1.493-1.493h1.652a1.493,1.493,0,0,1,1.493,1.493Z" transform="translate(-211.391 -118.907)" fill="none" stroke="#000" stroke-linecap="round" stroke-linejoin="round" stroke-width="2"/>
    <path id="Path_4328" data-name="Path 4328" d="M229.577,203.692h-2.1a2.541,2.541,0,0,1-2.541-2.541v-2.1h9.277" transform="translate(-184.967 -162.948)" fill="none" stroke="#000" stroke-linecap="round" stroke-linejoin="round" stroke-width="2"/>
    <path id="Path_4329" data-name="Path 4329" d="M229.577,230.115a4.639,4.639,0,0,0-4.639,4.639" transform="translate(-184.967 -189.371)" fill="none" stroke="#000" stroke-linecap="round" stroke-linejoin="round" stroke-width="2"/>
    <path id="Path_4330" data-name="Path 4330" d="M179.334,223.265l-.793,20.625a.747.747,0,0,0,.746.775h12.364a.747.747,0,0,0,.746-.775l-1.172-30.476a2.981,2.981,0,0,1,1.019-2.336,7.448,7.448,0,0,0,2.5-5.577v-6.449" transform="translate(-145.498 -162.947)" fill="none" stroke="#000" stroke-linecap="round" stroke-linejoin="round" stroke-width="2"/>
    <path id="Path_4331" data-name="Path 4331" d="M162.812,206.1v5.4a7.448,7.448,0,0,0,2.5,5.577,2.981,2.981,0,0,1,1.019,2.336l-.173,4.491" transform="translate(-132.119 -168.943)" fill="none" stroke="#000" stroke-linecap="round" stroke-linejoin="round" stroke-width="2"/>
    <path id="Path_4332" data-name="Path 4332" d="M10.645,244.023H8.993A1.493,1.493,0,0,1,7.5,242.529v-5.744a1.493,1.493,0,0,1,1.493-1.493h1.652a1.493,1.493,0,0,1,1.493,1.493v5.744A1.493,1.493,0,0,1,10.645,244.023Z" transform="translate(0 -193.775)" fill="none" stroke="#000" stroke-linecap="round" stroke-linejoin="round" stroke-width="2"/>
    <path id="Path_4333" data-name="Path 4333" d="M41.707,235.214H40.055a1.493,1.493,0,0,1-1.493-1.493v-7.29a1.493,1.493,0,0,1,1.493-1.493h1.652A1.493,1.493,0,0,1,43.2,226.43v7.29A1.493,1.493,0,0,1,41.707,235.214Z" transform="translate(-26.423 -184.966)" fill="none" stroke="#000" stroke-linecap="round" stroke-linejoin="round" stroke-width="2"/>
    <path id="Path_4334" data-name="Path 4334" d="M74.264,232.668H69.625V226.43a1.493,1.493,0,0,1,1.493-1.493H72.77a1.493,1.493,0,0,1,1.493,1.493v6.238Z" transform="translate(-52.848 -184.966)" fill="none" stroke="#000" stroke-linecap="round" stroke-linejoin="round" stroke-width="2"/>
    <path id="Path_4335" data-name="Path 4335" d="M105.327,232.668h-4.639V226.43a1.493,1.493,0,0,1,1.493-1.493h1.652a1.493,1.493,0,0,1,1.493,1.493Z" transform="translate(-79.272 -184.966)" fill="none" stroke="#000" stroke-linecap="round" stroke-linejoin="round" stroke-width="2"/>
    <path id="Path_4336" data-name="Path 4336" d="M74.264,281.348h-2.1a2.541,2.541,0,0,1-2.541-2.541v-2.1H78.9" transform="translate(-52.848 -229.007)" fill="none" stroke="#000" stroke-linecap="round" stroke-linejoin="round" stroke-width="2"/>
    <path id="Path_4337" data-name="Path 4337" d="M74.265,307.771a4.639,4.639,0,0,0-4.639,4.639" transform="translate(-52.849 -255.43)" fill="none" stroke="#000" stroke-linecap="round" stroke-linejoin="round" stroke-width="2"/>
    <path id="Path_4338" data-name="Path 4338" d="M108.418,297.838l-.26-6.767a2.981,2.981,0,0,1,1.019-2.336,7.448,7.448,0,0,0,2.5-5.577v-6.449" transform="translate(-85.625 -229.006)" fill="none" stroke="#000" stroke-linecap="round" stroke-linejoin="round" stroke-width="2"/>
    <path id="Path_4339" data-name="Path 4339" d="M7.5,283.757v5.4a7.448,7.448,0,0,0,2.5,5.577,2.981,2.981,0,0,1,1.019,2.336L10.3,315.946a.747.747,0,0,0,.746.775H22.513a.747.747,0,0,0,.746-.775L23,309.2" transform="translate(0 -235.003)" fill="none" stroke="#000" stroke-linecap="round" stroke-linejoin="round" stroke-width="2"/>
  </g>
</svg>
