<svg xmlns="http://www.w3.org/2000/svg" width="80.828" height="70" viewBox="0 0 80.828 70">
  <path id="communication_12687930" d="M87.523,67.028H57.5V45.2a1.3,1.3,0,0,0-1.3-1.3H9.3A1.3,1.3,0,0,0,8,45.2V76.5a1.3,1.3,0,0,0,1.3,1.3H22.823v8.981a1.3,1.3,0,0,0,2.184.963l10.886-9.944h3.44V99.632a1.3,1.3,0,0,0,1.3,1.3h7.848v8.981a1.3,1.3,0,0,0,2.071,1.054l13.8-10.035H87.523a1.3,1.3,0,0,0,1.3-1.3v-31.3a1.3,1.3,0,0,0-1.3-1.3Zm-48.191,1.3V75.2H35.387a1.311,1.311,0,0,0-.88.341L25.43,83.832V76.5a1.3,1.3,0,0,0-1.3-1.3H10.607V46.506h44.28V67.028H40.635a1.3,1.3,0,0,0-1.3,1.3Zm46.888,30H63.932a1.312,1.312,0,0,0-.768.249l-12.074,8.779V99.632a1.3,1.3,0,0,0-1.3-1.3H41.939V69.635H86.22ZM57.454,92.009a1.306,1.306,0,0,0,1.3,0l11.948-6.9a1.3,1.3,0,0,0,0-2.259l-11.948-6.9A1.3,1.3,0,0,0,56.8,77.084v13.8a1.3,1.3,0,0,0,.652,1.129ZM59.41,79.342l8.037,4.641L59.41,88.623ZM23.382,58.691a1.3,1.3,0,0,1-1.3,1.3H17.364a1.3,1.3,0,1,1,0-2.607h4.714A1.3,1.3,0,0,1,23.382,58.691Zm13.027,0a1.3,1.3,0,0,1-1.3,1.3H30.39a1.3,1.3,0,1,1,0-2.607H35.1A1.3,1.3,0,0,1,36.408,58.691Zm13.027,0a1.3,1.3,0,0,1-1.3,1.3H43.417a1.3,1.3,0,1,1,0-2.607h4.714A1.3,1.3,0,0,1,49.435,58.691Zm13.214-9.065h12.1A7.12,7.12,0,0,0,80.423,55.3v7.071a1.3,1.3,0,0,0,2.607,0V55.3a7.1,7.1,0,1,0-8.283-8.283h-12.1a1.3,1.3,0,1,0,0,2.607Zm19.076-5.8a4.494,4.494,0,1,1-4.494,4.494A4.5,4.5,0,0,1,81.725,43.827Zm-48.281,54.5H22.081a7.122,7.122,0,0,0-5.676-5.676V85.582a1.3,1.3,0,0,0-2.607,0v7.071a7.1,7.1,0,1,0,8.283,8.283H33.444a1.3,1.3,0,0,0,0-2.607Zm-18.342,5.8a4.494,4.494,0,1,1,4.494-4.5h0a4.5,4.5,0,0,1-4.494,4.493Z" transform="translate(-8 -41.22)" fill="#fff"/>
</svg>
