<svg id="Group_24284" data-name="Group 24284" xmlns="http://www.w3.org/2000/svg" xmlns:xlink="http://www.w3.org/1999/xlink" width="58.347" height="70" viewBox="0 0 58.347 70">
  <defs>
    <clipPath id="clip-path">
      <rect id="Rectangle_1829" data-name="Rectangle 1829" width="58.347" height="70" fill="#fff"/>
    </clipPath>
  </defs>
  <g id="Group_22892" data-name="Group 22892" clip-path="url(#clip-path)">
    <path id="Path_3498" data-name="Path 3498" d="M10.616,70C7.2,67.977,6.832,66.929,8.126,62.6H0V53.13H5.851c0-.971,0-1.763,0-2.556C5.877,41.1,5.594,31.609,6,22.149A22.8,22.8,0,0,1,29.667.007,23.084,23.084,0,0,1,52.544,23.286c.122,9.132.025,18.267.026,27.4v2.406h5.777v9.4H50.16c.116,1.648.672,3.264.19,4.462-.493,1.227-2,2.045-3.068,3.042H45.633c-1.065-.99-2.578-1.8-3.069-3.02-.485-1.2.062-2.825.162-4.346H15c1.411,3.984,1,5.206-2.325,7.366Zm38.66-17.155.841.392c.268-.6.766-1.2.769-1.8.046-9.472.162-18.947-.009-28.416C50.67,11.613,42.667,3.042,31.349,1.768c-11.557-1.3-22.9,7.307-23.525,18.6-.583,10.471-.258,20.993-.281,31.493,0,.435.519.871.8,1.306L9,52.862V44.717h5.648a21.869,21.869,0,0,1-.936-4.263c-.061-4.322.058-8.647.153-12.971.065-2.937,1.823-4.674,4.792-4.771,1.495-.049,2.993-.009,4.449-.009.929-3.55,2.256-4.915,4.935-5.014,6.1-.226,6.893.663,8.28,5.3,1.323,0,2.692-.029,4.059.006a4.509,4.509,0,0,1,4.767,4.789c.041,2.264.009,4.531-.072,6.794-.12,3.368-.312,6.733-.483,10.294h4.68ZM56.729,54.9H1.687v5.936H56.729ZM36.088,24.675H22.862V44.05H36.088ZM15.326,52.426H42.988V46.547H15.326Zm5.717-27.852c-4.417-.675-5.5.208-5.547,4.419q-.062,5.146-.154,10.291c-.074,4.219,1.289,5.338,5.7,4.444ZM37.961,43.994c4.056.787,5.3-.177,5.374-4.223q.1-5.349.167-10.7c.046-3.931-1.4-5.043-5.541-4.123ZM34.095,22.636c-.1-2.447-1.025-3.244-3.714-3.294-4.132-.077-5.007.448-5.228,3.294Zm9.823,43.032a2.5,2.5,0,0,0,2.6,2.564,2.438,2.438,0,0,0,2.467-2.489,2.535,2.535,0,1,0-5.064-.075M9,65.65a2.648,2.648,0,0,0,2.635,2.592,2.538,2.538,0,0,0,2.526-2.483,2.646,2.646,0,0,0-2.518-2.705A2.71,2.71,0,0,0,9,65.65m4.369-19.1h-2.6v5.989h2.6Zm34.084-.008H44.925v5.981h2.527Z" transform="translate(0 0)" fill="#fff"/>
    <path id="Path_3499" data-name="Path 3499" d="M49.064,137.8c5.276,0,10.552-.021,15.827.032a4.794,4.794,0,0,1,1.625.7c-.556.307-1.11.88-1.667.883q-15.827.08-31.655.007c-.535,0-1.069-.472-1.6-.724.549-.3,1.094-.847,1.647-.854,5.275-.065,10.551-.039,15.827-.039" transform="translate(-18.501 -80.699)" fill="#fff"/>
  </g>
</svg>
