<svg id="Group_23639" data-name="Group 23639" xmlns="http://www.w3.org/2000/svg" xmlns:xlink="http://www.w3.org/1999/xlink" width="71.189" height="70" viewBox="0 0 71.189 70">
  <defs>
    <clipPath id="clip-path">
      <rect id="Rectangle_1827" data-name="Rectangle 1827" width="71.19" height="70" fill="#0a00b7"/>
    </clipPath>
  </defs>
  <g id="Group_22887" data-name="Group 22887" clip-path="url(#clip-path)">
    <path id="Path_3488" data-name="Path 3488" d="M0,45.585a2.239,2.239,0,0,1,2.119-.994c2.5.047,5,.016,7.5.016,1.416,0,1.736.219,2.217,1.556l4.328-.717.13-.21c-.693-.642-1.415-1.256-2.075-1.93a19.843,19.843,0,0,1-3.5-22.464,1.548,1.548,0,0,1,.786-.785,1.128,1.128,0,0,1,1.02.3,1.792,1.792,0,0,1,.093,1.269A42.09,42.09,0,0,0,11.083,26.5a17.165,17.165,0,0,0,4.433,15.145c.942,1.02,1.946,1.985,2.9,2.99a.881.881,0,0,0,.9.306q4.924-.84,9.86-1.614a20.083,20.083,0,0,1,6.89.495c1.159.221,2.333.376,3.476.662,2.167.544,3.875,1.7,4.5,3.971a4.1,4.1,0,0,1-3.459,5.151,15.688,15.688,0,0,1-3.791-.025c-1.659-.138-3.306-.41-4.96-.61a1.31,1.31,0,0,0-1.62,1.125A1.38,1.38,0,0,0,31.4,55.7c3.3.594,6.59,1.3,9.917,1.674A18.14,18.14,0,0,0,45.9,56.8c.174-.027.33-.239.474-.386,4.81-4.917,9.705-9.754,14.4-14.778,4.783-5.118,5.81-11.176,3.816-17.814a1.892,1.892,0,0,0-.105-.257.712.712,0,0,0-.079-.111A12.52,12.52,0,0,1,46.7,15.03c-.3.121-.583.229-.863.356a17.748,17.748,0,0,0-5.111,3.539c-.446.438-.885.886-1.356,1.3a1.552,1.552,0,0,1-2.447-.019c-.606-.538-1.164-1.128-1.76-1.677A16.2,16.2,0,0,0,24.769,13.96a11.68,11.68,0,0,0-9.033,3.365c-.083.08-.161.166-.245.247-.595.576-1.171.628-1.638.149a1.081,1.081,0,0,1,.142-1.6,13.163,13.163,0,0,1,4.664-3.191c4.847-1.9,9.494-1.208,13.962,1.208a20.965,20.965,0,0,1,2.927,1.978c.908.712,1.721,1.543,2.623,2.365.517-.491,1.043-1,1.578-1.5a18.966,18.966,0,0,1,6.125-3.868.758.758,0,0,0,.575-.849,11.877,11.877,0,0,1,1.144-5.1c.374-.792.913-1.065,1.516-.775s.724.86.368,1.667A10.269,10.269,0,1,0,61.158,2.365a10.067,10.067,0,0,0-8.484,1.762c-.424.309-.84.6-1.394.316A1.043,1.043,0,0,1,51.21,2.62,12.21,12.21,0,0,1,56.942.141c.2-.033.4-.093.6-.141h2.5c.154.042.306.1.463.126,5.161.894,8.67,3.814,10.129,8.824s.011,9.318-3.843,12.8a.957.957,0,0,0-.318,1.214c2.416,7.693,1.072,14.591-4.539,20.487-3.863,4.06-7.825,8.027-11.741,12.038-.14.143-.265.3-.505.577,1.762-.343,3.365-.666,4.973-.964a30.889,30.889,0,0,1,4.228-.7,3.976,3.976,0,0,1,4.12,2.577,4.235,4.235,0,0,1-1.569,4.753,8.609,8.609,0,0,1-2.509,1.28C52.713,65.043,46.47,67,40.249,69.029a16.07,16.07,0,0,1-9.552.435c-5.61-1.573-11.238-3.084-16.859-4.619-.677-.185-1.359-.355-2.033-.531-.34,1.2-.807,1.549-1.982,1.55-2.617,0-5.235-.017-7.852.011A1.918,1.918,0,0,1,0,64.764Zm11.732,9.626c0,2.084.018,4.168-.012,6.252-.008.517.165.7.657.831,6.116,1.645,12.238,3.269,18.328,5a13.814,13.814,0,0,0,8.32-.085c3.8-1.244,7.615-2.439,11.423-3.658,2.774-.888,5.548-1.772,8.317-2.676a3.178,3.178,0,0,0,2.287-2.129A1.538,1.538,0,0,0,60.026,56.7a4.238,4.238,0,0,0-1.9-.173c-4.18.786-8.342,1.669-12.522,2.454a14.968,14.968,0,0,1-4.449.477c-3.483-.43-6.939-1.114-10.387-1.788a3.452,3.452,0,0,1,1.269-6.776c1.631.2,3.255.464,4.89.606a12.452,12.452,0,0,0,3.437.005,2.084,2.084,0,0,0,1.108-3.6,4.471,4.471,0,0,0-2.756-1.475c-.934-.162-1.87-.319-2.8-.512a20.181,20.181,0,0,0-7.643-.4Q20.307,46.9,12.329,48.195c-.474.078-.609.236-.605.7.02,2.107.009,4.214.008,6.321M2.138,63.733H9.614v-17H2.138Z" fill="#0a00b7"/>
    <path id="Path_3489" data-name="Path 3489" d="M155.215,196.16c1.328-2.32,2.583-4.506,3.832-6.7.269-.471.525-.94,1.178-.921.617.018.854.471,1.1.924q2.367,4.321,4.738,8.639c.131.24.269.476.451.8.863-1.447,1.7-2.8,2.48-4.181a1.585,1.585,0,0,1,1.563-.9c2.686.035,5.372.01,8.059.016.873,0,1.388.558,1.192,1.292a1.088,1.088,0,0,1-1.225.793c-2.408-.006-4.817.012-7.225-.015a.967.967,0,0,0-.977.56c-.888,1.544-1.812,3.067-2.723,4.6-.285.479-.535,1-1.222.977-.649-.021-.874-.518-1.132-.989q-2.334-4.259-4.674-8.515c-.133-.241-.272-.478-.45-.788-.149.233-.271.408-.377.593-1.163,2.027-2.318,4.057-3.485,6.081-.615,1.068-1.456,1.086-2.117.05-.755-1.185-1.5-2.376-2.323-3.676-.588.97-1.149,1.835-1.645,2.736a1.568,1.568,0,0,1-1.568.9c-1.921-.037-3.844-.01-5.766-.014-.875,0-1.339-.375-1.332-1.055s.461-1.025,1.357-1.027c1.621,0,3.242-.021,4.863.01a1.042,1.042,0,0,0,1.1-.6c.6-1.1,1.268-2.152,1.919-3.218.626-1.026,1.441-1.039,2.087-.031.758,1.182,1.5,2.372,2.319,3.665" transform="translate(-121.857 -162.288)" fill="#0a00b7"/>
    <path id="Path_3490" data-name="Path 3490" d="M389.389,55.91c0-1.018-.007-1.916,0-2.815.009-.843.37-1.278,1.033-1.275s1.032.438,1.045,1.278c.013.9,0,1.8,0,2.809.8,0,1.556,0,2.309,0a5.6,5.6,0,0,1,.9.04.948.948,0,0,1,.875,1.062.932.932,0,0,1-.975.965c-.809.032-1.62.011-2.429.018-.2,0-.405.024-.678.041,0,.851,0,1.656,0,2.462a3.931,3.931,0,0,1-.044.759.957.957,0,0,1-1.089.845.928.928,0,0,1-.928-.944c-.034-.855-.037-1.712-.013-2.567.012-.443-.115-.625-.584-.606-.785.031-1.573.019-2.36,0-.727-.014-1.162-.393-1.183-.992-.021-.626.426-1.061,1.18-1.08.945-.024,1.891-.006,2.939-.006" transform="translate(-331.618 -44.604)" fill="#0a00b7"/>
  </g>
</svg>
