<svg id="Group_24288" data-name="Group 24288" xmlns="http://www.w3.org/2000/svg" xmlns:xlink="http://www.w3.org/1999/xlink" width="70.058" height="70" viewBox="0 0 70.058 70">
  <defs>
    <clipPath id="clip-path">
      <rect id="Rectangle_2103" data-name="Rectangle 2103" width="70.058" height="70" fill="#fff"/>
    </clipPath>
  </defs>
  <g id="Group_23722" data-name="Group 23722" clip-path="url(#clip-path)">
    <path id="Path_3814" data-name="Path 3814" d="M0,37.4v-4.83c.117-.915.212-1.833.354-2.743A33.388,33.388,0,0,1,6.632,14.51C15.074,3.39,26.319-1.392,40.147.348A32.788,32.788,0,0,1,60.608,11.1c8.041,8.759,10.911,19.1,8.762,30.744A33.626,33.626,0,0,1,58.726,60.752,33.96,33.96,0,0,1,41.453,69.4c-1.329.241-2.674.4-4.011.6H32.611c-.244-.05-.485-.112-.731-.146-1.267-.178-2.55-.276-3.8-.536A34.643,34.643,0,0,1,9.244,58.668,33.919,33.919,0,0,1,.6,41.4c-.241-1.326-.4-2.668-.6-4m33.792-7.012c-.951-.137-1.822-.244-2.686-.391-8.489-1.447-10.852-8-10.736-14.413a1.056,1.056,0,0,1,1.107-1.108,15.379,15.379,0,0,1,9.89,2.773A28.754,28.754,0,0,1,34.181,20c.021-.071.067-.207.1-.346a11.873,11.873,0,0,1,4.434-7.306,15.778,15.778,0,0,1,9.843-2.714,1.1,1.1,0,0,1,1.113,1.255,29.181,29.181,0,0,1-.339,4.046c-.988,5.263-3.991,8.725-9.286,10-1.233.3-2.5.437-3.759.649v13.17c9.966-5.979,20.385-7.029,31.409-3.2-.32-12.277-5.264-22.024-15.754-28.33C40.486.339,28.671.515,17.388,7.681,7.345,14.06,2.638,23.635,2.364,35.562a35.432,35.432,0,0,1,31.427,3.211ZM42.12,66.841c1.3-.392,2.568-.707,3.782-1.154,1.618-.594,1.51-.152,1.228-2.019A31.822,31.822,0,0,0,34.974,42.683a31.586,31.586,0,0,0-25.73-6.458c-2.257.38-4.45,1.144-6.7,1.738L2.9,40.475a34.807,34.807,0,0,1,24.652,5.593A34.829,34.829,0,0,1,42.12,66.841M3.322,42.914c.479,1.4.882,2.637,1.338,3.854a.893.893,0,0,0,.59.429c1.742.359,3.529.553,5.233,1.039a34.559,34.559,0,0,1,22.325,18.6,1.037,1.037,0,0,0,1.066.729c1.9-.08,3.8-.137,5.844-.208a32.264,32.264,0,0,0-13.748-19.4,32.426,32.426,0,0,0-22.649-5.05m39.132,3.159a35.255,35.255,0,0,1,24.711-5.6l.314-2.326a32.476,32.476,0,0,0-17.6-1.967,31.624,31.624,0,0,0-12.517,4.862l5.088,5.03M5.939,49.7A32.92,32.92,0,0,0,19.685,63.719c3.317,1.794,9.023,3.607,10.551,3.306C24.929,57.416,16.921,51.676,5.939,49.7m41.243,4.725c.123-.088.246-.174.366-.264A34.529,34.529,0,0,1,64.782,47.2c.2-.023.5-.139.553-.285.475-1.306.9-2.628,1.376-4.03a33,33,0,0,0-23.005,5.28l3.475,6.261m2.632,9.519c4.392-1.4,12.78-9.753,14.143-14.18-.589.105-1.155.194-1.717.309a31.826,31.826,0,0,0-13.828,6.52.756.756,0,0,0-.285.579c.542,2.264,1.12,4.52,1.687,6.772M33.775,27.831c-.31-3.279-.983-6.355-3.664-8.519a12.245,12.245,0,0,0-7.287-2.4c.388,6.933,3.882,10.607,10.951,10.916m2.518-4.761c3.22-.319,6.238-.958,8.411-3.533a12.324,12.324,0,0,0,2.542-7.453c-7.024.465-10.543,3.873-10.953,10.986" transform="translate(0 0)" fill="#fff"/>
  </g>
</svg>
