<svg id="Group_137" data-name="Group 137" xmlns="http://www.w3.org/2000/svg" width="56" height="56" viewBox="0 0 56 56">
  <circle id="Ellipse_9" data-name="Ellipse 9" cx="28" cy="28" r="28" fill="#07016a"/>
  <g id="_2" data-name="2" transform="translate(17.635 35.035) rotate(-90)">
    <path id="Path_1" data-name="Path 1" d="M.995,20.365a.912.912,0,0,1-.995-.8V.8A.912.912,0,0,1,.995,0a.912.912,0,0,1,.995.8V19.569A.912.912,0,0,1,.995,20.365Z" transform="translate(6.523 0)" fill="#fff"/>
    <path id="Path_2" data-name="Path 2" d="M7.517,10.393a.723.723,0,0,1-.562-.291L.233,1.7a1.178,1.178,0,0,1,0-1.406.689.689,0,0,1,1.125,0l6.159,7.7,6.159-7.7a.689.689,0,0,1,1.125,0,1.178,1.178,0,0,1,0,1.406L8.08,10.1A.723.723,0,0,1,7.517,10.393Z" transform="translate(0 9.972)" fill="#fff"/>
  </g>
</svg>
