<svg xmlns="http://www.w3.org/2000/svg" width="76.04" height="71.963" viewBox="0 0 76.04 71.963">
  <g id="Layer_x0020_1" transform="translate(0 -45.5)">
    <g id="_404225392" transform="translate(0 45.5)">
      <g id="Group_24309" data-name="Group 24309" transform="translate(0 0)">
        <g id="Group_24291" data-name="Group 24291" transform="translate(36.884 48.8)">
          <path id="Path_4283" data-name="Path 4283" d="M829.114,1150.667a1.1,1.1,0,0,1-1.114-1.114v-7.439a1.114,1.114,0,1,1,2.227,0v7.439A1.1,1.1,0,0,1,829.114,1150.667Z" transform="translate(-828 -1141)" fill="#0a00b7" fill-rule="evenodd"/>
        </g>
        <g id="Group_24292" data-name="Group 24292" transform="translate(26.505 43.633)">
          <path id="Path_4284" data-name="Path 4284" d="M599.766,1039.834a1.1,1.1,0,0,1-1.114-1.114v-5.88l-3.163-2.183a1.009,1.009,0,0,1-.49-.846v-3.7a1.114,1.114,0,0,1,2.227,0v3.163l3.207,2.183a1.146,1.146,0,0,1,.49.891v6.37A1.237,1.237,0,0,1,599.766,1039.834Z" transform="translate(-595 -1025)" fill="#0a00b7" fill-rule="evenodd"/>
        </g>
        <g id="Group_24293" data-name="Group 24293" transform="translate(19.957 45.459)">
          <path id="Path_4285" data-name="Path 4285" d="M453.346,1079.007a1.132,1.132,0,0,1-1.114-1.114v-4.544l-3.742-2.317a1.1,1.1,0,0,1-.49-.935v-2.984a1.114,1.114,0,1,1,2.227,0v2.361l3.742,2.361a1.049,1.049,0,0,1,.49.935v5.123A1.132,1.132,0,0,1,453.346,1079.007Z" transform="translate(-448 -1066)" fill="#0a00b7" fill-rule="evenodd"/>
        </g>
        <g id="Group_24294" data-name="Group 24294" transform="translate(43.61 43.633)">
          <path id="Path_4286" data-name="Path 4286" d="M980.114,1039.834A1.1,1.1,0,0,1,979,1038.72v-6.37a1.163,1.163,0,0,1,.445-.891l3.118-2.183v-3.163a1.114,1.114,0,1,1,2.227,0v3.7a1.013,1.013,0,0,1-.445.846l-3.118,2.227v5.836A1.1,1.1,0,0,1,980.114,1039.834Z" transform="translate(-979 -1025)" fill="#0a00b7" fill-rule="evenodd"/>
        </g>
        <g id="Group_24295" data-name="Group 24295" transform="translate(49.58 45.459)">
          <path id="Path_4287" data-name="Path 4287" d="M1114.114,1079.007a1.1,1.1,0,0,1-1.114-1.114v-5.123a1.049,1.049,0,0,1,.49-.935l3.786-2.361v-2.361a1.114,1.114,0,1,1,2.227,0v2.984a1.1,1.1,0,0,1-.49.935l-3.786,2.317v4.544A1.131,1.131,0,0,1,1114.114,1079.007Z" transform="translate(-1113 -1066)" fill="#0a00b7" fill-rule="evenodd"/>
        </g>
        <g id="Group_24300" data-name="Group 24300" transform="translate(10.691)">
          <g id="Group_24296" data-name="Group 24296">
            <path id="Path_4288" data-name="Path 4288" d="M267.307,70.022a1.515,1.515,0,0,1-.445-.045L240.668,58.752a1.2,1.2,0,0,1-.668-.98,1.1,1.1,0,0,1,.668-1.025l26.193-11.181a1.366,1.366,0,0,1,.846,0L293.9,56.748a1.266,1.266,0,0,1,.668,1.025,1.041,1.041,0,0,1-.668.98L267.708,69.933A1.3,1.3,0,0,1,267.307,70.022Zm-23.431-12.25,23.431,9.978,23.387-9.978L267.307,47.75Z" transform="translate(-240 -45.5)" fill="#0a00b7" fill-rule="evenodd"/>
          </g>
          <g id="Group_24297" data-name="Group 24297" transform="translate(8.33 14.678)">
            <path id="Path_4289" data-name="Path 4289" d="M458.761,396.917H433.192A6.207,6.207,0,0,1,427,390.725V376.114a1.114,1.114,0,1,1,2.227,0v14.611a3.992,3.992,0,0,0,4.009,4.009h25.569a3.992,3.992,0,0,0,4.009-4.009V376.114a1.114,1.114,0,1,1,2.227,0v14.611A6.4,6.4,0,0,1,458.761,396.917Z" transform="translate(-427 -375)" fill="#0a00b7" fill-rule="evenodd"/>
          </g>
          <g id="Group_24298" data-name="Group 24298" transform="translate(50.381 12.005)">
            <path id="Path_4290" data-name="Path 4290" d="M1372.114,327.25a1.132,1.132,0,0,1-1.114-1.114V316.114a1.114,1.114,0,1,1,2.227,0v10.023A1.2,1.2,0,0,1,1372.114,327.25Z" transform="translate(-1371 -315)" fill="#0a00b7" fill-rule="evenodd"/>
          </g>
          <g id="Group_24299" data-name="Group 24299" transform="translate(48.466 22.072)">
            <path id="Path_4291" data-name="Path 4291" d="M1331.029,547.014a3.061,3.061,0,0,1-3.029-3.029,3.007,3.007,0,0,1,6.014,0A3.053,3.053,0,0,1,1331.029,547.014Zm0-3.831a.809.809,0,0,0-.846.8.846.846,0,0,0,.846.846.809.809,0,0,0,.8-.846A.748.748,0,0,0,1331.029,543.183Z" transform="translate(-1328 -541)" fill="#0a00b7" fill-rule="evenodd"/>
          </g>
        </g>
        <g id="Group_24307" data-name="Group 24307" transform="translate(0 14.411)">
          <g id="Group_24301" data-name="Group 24301" transform="translate(0 46.016)">
            <path id="Path_4292" data-name="Path 4292" d="M70.2,1413.537H5.746A5.76,5.76,0,0,1,0,1407.791v-4.677A1.1,1.1,0,0,1,1.114,1402H74.926a1.1,1.1,0,0,1,1.114,1.114v4.677A5.866,5.866,0,0,1,70.2,1413.537Zm-68.021-9.31v3.564a3.673,3.673,0,0,0,3.564,3.608H70.2a3.593,3.593,0,0,0,3.608-3.608v-3.564Z" transform="translate(0 -1402)" fill="#0a00b7" fill-rule="evenodd"/>
          </g>
          <g id="Group_24302" data-name="Group 24302" transform="translate(3.653)">
            <path id="Path_4293" data-name="Path 4293" d="M149.576,417.243a1.1,1.1,0,0,1-1.114-1.114V376.484a5.257,5.257,0,0,0-5.212-5.256h-2.762a1.114,1.114,0,1,1,0-2.227h2.762a7.367,7.367,0,0,1,7.35,7.395v39.735A1.087,1.087,0,0,1,149.576,417.243Zm-66.462,0A1.1,1.1,0,0,1,82,416.129V376.484a7.4,7.4,0,0,1,7.395-7.395h8.464a1.092,1.092,0,1,1,0,2.183H89.484a5.238,5.238,0,0,0-5.256,5.256v39.735A1.083,1.083,0,0,1,83.114,417.243Z" transform="translate(-82 -369)" fill="#0a00b7" fill-rule="evenodd"/>
          </g>
          <g id="Group_24303" data-name="Group 24303" transform="translate(29.89 46.016)">
            <path id="Path_4294" data-name="Path 4294" d="M686.324,1408.9h-14.21a1.1,1.1,0,0,1-1.114-1.114v-4.677a1.114,1.114,0,1,1,2.227,0v3.564h12.027v-3.564a1.114,1.114,0,1,1,2.227,0v4.677A1.171,1.171,0,0,1,686.324,1408.9Z" transform="translate(-671 -1402)" fill="#0a00b7" fill-rule="evenodd"/>
          </g>
          <g id="Group_24304" data-name="Group 24304" transform="translate(56.217 50.693)">
            <path id="Path_4295" data-name="Path 4295" d="M1266.365,1509.227h-3.252a1.114,1.114,0,0,1,0-2.227h3.252a1.1,1.1,0,0,1,1.114,1.114A1.131,1.131,0,0,1,1266.365,1509.227Z" transform="translate(-1262 -1507)" fill="#0a00b7" fill-rule="evenodd"/>
          </g>
          <g id="Group_24305" data-name="Group 24305" transform="translate(62.854 50.693)">
            <path id="Path_4296" data-name="Path 4296" d="M1415.41,1509.227h-3.3a1.114,1.114,0,1,1,0-2.227h3.3a1.1,1.1,0,0,1,1.114,1.114A1.162,1.162,0,0,1,1415.41,1509.227Z" transform="translate(-1411 -1507)" fill="#0a00b7" fill-rule="evenodd"/>
          </g>
          <g id="Group_24306" data-name="Group 24306" transform="translate(8.196 4.143)">
            <path id="Path_4297" data-name="Path 4297" d="M242.489,501.913H185.114A1.1,1.1,0,0,1,184,500.8v-35.28a3.517,3.517,0,0,1,3.519-3.475h8.419a1.114,1.114,0,1,1,0,2.227h-8.419a1.332,1.332,0,0,0-1.336,1.292V499.73h55.192V465.519a1.355,1.355,0,0,0-1.425-1.292h-2a1.114,1.114,0,0,1,0-2.227h2a3.538,3.538,0,0,1,3.608,3.475V500.8A1.041,1.041,0,0,1,242.489,501.913Z" transform="translate(-184 -462)" fill="#0a00b7" fill-rule="evenodd"/>
          </g>
        </g>
        <g id="Group_24308" data-name="Group 24308" transform="translate(34.478 43.989)">
          <path id="Path_4298" data-name="Path 4298" d="M777.519,1040.038a3.519,3.519,0,1,1,3.519-3.519A3.556,3.556,0,0,1,777.519,1040.038Zm0-4.855a1.359,1.359,0,1,0,1.336,1.336A1.379,1.379,0,0,0,777.519,1035.183Z" transform="translate(-774 -1033)" fill="#0a00b7" fill-rule="evenodd"/>
        </g>
      </g>
    </g>
  </g>
</svg>
