<svg xmlns="http://www.w3.org/2000/svg" width="75.483" height="70" viewBox="0 0 75.483 70">
  <g id="processing_18739369" transform="translate(-2 -4.179)">
    <path id="Path_4277" data-name="Path 4277" d="M13.332,54.772a1.564,1.564,0,0,0-2.133,0,1.324,1.324,0,0,0-.333.484,1.622,1.622,0,0,0-.106.59,1.492,1.492,0,0,0,.106.575,1.613,1.613,0,0,0,.817.817,1.462,1.462,0,0,0,1.165,0,1.613,1.613,0,0,0,.817-.817,1.536,1.536,0,0,0,.121-.575,1.678,1.678,0,0,0-.121-.59,1.537,1.537,0,0,0-.333-.484Z" transform="translate(4.493 11.553)" fill="#0a00b7"/>
    <path id="Path_4278" data-name="Path 4278" d="M19.182,54.779a.67.67,0,0,0-.227-.182,1.4,1.4,0,0,0-.257-.151,2.317,2.317,0,0,0-.287-.077,1.513,1.513,0,0,0-1.362.41,1.442,1.442,0,0,0-.331.5,1.592,1.592,0,0,0,0,1.15,1.563,1.563,0,0,0,1.405.938,1.513,1.513,0,0,0,.576-.121,1.506,1.506,0,0,0,.817-1.967A1.278,1.278,0,0,0,19.182,54.779Z" transform="translate(3.642 11.547)" fill="#0a00b7"/>
    <path id="Path_4279" data-name="Path 4279" d="M22.9,54.774a1.492,1.492,0,0,0-.439,1.074,1.466,1.466,0,0,0,.439,1.059,1.33,1.33,0,0,0,.483.333,1.59,1.59,0,0,0,.592.121,1.463,1.463,0,0,0,1.059-.454,1.48,1.48,0,0,0,0-2.133,1.549,1.549,0,0,0-2.133,0Z" transform="translate(5.1 11.552)" fill="#0a00b7"/>
    <path id="Path_4280" data-name="Path 4280" d="M51.441,4.179c-13.012,0-23.793,8-25.707,18.411H9.356A1.258,1.258,0,0,0,8.1,23.848V62.9H3.258A1.258,1.258,0,0,0,2,64.157,10.033,10.033,0,0,0,12.023,74.179H66.083A10.032,10.032,0,0,0,76.1,64.157,1.258,1.258,0,0,0,74.847,62.9H70.009V41.079a19.969,19.969,0,0,0,7.474-15.193C77.483,13.916,65.8,4.179,51.441,4.179ZM66.083,71.663H12.023a7.519,7.519,0,0,1-7.4-6.247H73.483A7.514,7.514,0,0,1,66.083,71.663ZM67.492,62.9H10.614V25.107H25.451c-.011.26-.047.516-.047.779a19.77,19.77,0,0,0,7.045,14.86l-3.354,9.4a1.258,1.258,0,0,0,1.184,1.681,1.283,1.283,0,0,0,.5-.1l12.178-5.3a30.8,30.8,0,0,0,8.478,1.175,29.312,29.312,0,0,0,16.049-4.647ZM51.441,45.074a28.121,28.121,0,0,1-8.194-1.2,1.278,1.278,0,0,0-.868.05l-9.939,4.326,2.668-7.475a1.258,1.258,0,0,0-.377-1.394,17.473,17.473,0,0,1-6.816-13.5C27.916,15.3,38.467,6.7,51.441,6.7S74.966,15.3,74.966,25.885,64.414,45.074,51.441,45.074Z" transform="translate(0 0)" fill="#0a00b7"/>
    <path id="Path_4281" data-name="Path 4281" d="M61.841,22.793a2.152,2.152,0,0,1-1.413-3.578,1.513,1.513,0,0,0-.089-2.042l-3.7-3.7a1.513,1.513,0,0,0-2.044-.088,2.118,2.118,0,0,1-2.2.339,2.145,2.145,0,0,1-1.325-1.864,1.513,1.513,0,0,0-1.513-1.387H44.317A1.513,1.513,0,0,0,42.8,11.849a2.118,2.118,0,0,1-1.319,1.8,2.145,2.145,0,0,1-2.26-.386,1.513,1.513,0,0,0-2.042.091l-3.7,3.7a1.513,1.513,0,0,0-.091,2.042,2.118,2.118,0,0,1,.34,2.206,2.145,2.145,0,0,1-1.864,1.325,1.513,1.513,0,0,0-1.387,1.513V29.38a1.513,1.513,0,0,0,1.383,1.513,2.118,2.118,0,0,1,1.8,1.319,2.148,2.148,0,0,1-.387,2.26,1.513,1.513,0,0,0,.091,2.042l3.7,3.7a1.513,1.513,0,0,0,2.042.089,2.118,2.118,0,0,1,2.206-.34,2.145,2.145,0,0,1,1.325,1.864,1.513,1.513,0,0,0,1.513,1.387h5.237A1.513,1.513,0,0,0,50.9,41.837a2.118,2.118,0,0,1,1.321-1.8,2.141,2.141,0,0,1,2.257.387,1.513,1.513,0,0,0,2.041-.091l3.7-3.7a1.513,1.513,0,0,0,.088-2.059,2.118,2.118,0,0,1-.339-2.206A2.145,2.145,0,0,1,61.84,31.04a1.513,1.513,0,0,0,1.387-1.513V24.3A1.513,1.513,0,0,0,61.841,22.793ZM60.2,28.324a5.18,5.18,0,0,0-2.958,7l-2,2A5.182,5.182,0,0,0,48.2,40.187H45.365a5.178,5.178,0,0,0-7-2.958l-2-2a5.179,5.179,0,0,0-2.856-7.041V25.35a5.18,5.18,0,0,0,2.959-7l2-2a5.182,5.182,0,0,0,7.041-2.856h2.831a5.18,5.18,0,0,0,7,2.958l2,2A5.183,5.183,0,0,0,60.2,25.494Z" transform="translate(3.996 -0.388)" fill="#0a00b7"/>
    <path id="Path_4282" data-name="Path 4282" d="M44.381,15.282a9.088,9.088,0,1,0,9.088,9.088A9.088,9.088,0,0,0,44.381,15.282Zm0,15.148a7.067,7.067,0,1,1,0,.008Z" transform="translate(6.467 2.086)" fill="#0a00b7"/>
  </g>
</svg>
