<svg xmlns="http://www.w3.org/2000/svg" width="57" height="57" viewBox="0 0 57 57">
  <g id="sign_5828402" transform="translate(0.5 0.5)">
    <path id="Path_2010" data-name="Path 2010" d="M54.382,17.289l-5.848-4.006V2.8a2.8,2.8,0,0,0-2.8-2.8H10.267a2.8,2.8,0,0,0-2.8,2.8V13.283l-5.841,4A3.679,3.679,0,0,0,0,20.347V52.285A3.728,3.728,0,0,0,3.733,56H52.267A3.728,3.728,0,0,0,56,52.285V20.347a3.679,3.679,0,0,0-1.618-3.058Zm-.423,35.764L32.893,37.063l21.24-16.491V52.285a1.817,1.817,0,0,1-.175.768ZM53.33,18.832l-4.8,3.724V15.547ZM10.267,1.867H45.733a.933.933,0,0,1,.933.933V24.005L31.354,35.894l-.56-.425a4.639,4.639,0,0,0-5.59,0l-.56.424L9.333,24.005V2.8A.933.933,0,0,1,10.267,1.867ZM2.041,53.053a1.817,1.817,0,0,1-.175-.768V20.572l21.24,16.491ZM7.467,15.547v7.009l-4.8-3.723h0ZM3.733,54.133H3.709L26.334,36.96a2.763,2.763,0,0,1,3.331,0L52.291,54.133H3.733Z" transform="translate(0)" fill="#0a00b7" stroke="#0b00b8" stroke-width="1"/>
    <path id="Path_2011" data-name="Path 2011" d="M30,32a13,13,0,0,0,6.5-1.741,1,1,0,0,0-1-1.73A11,11,0,1,1,41,19v1.5a2.5,2.5,0,0,1-5,0V14a1,1,0,0,0-2,0v.54a6,6,0,1,0,.647,8.249A4.486,4.486,0,0,0,43,20.5V19A13,13,0,1,0,30,32Zm0-9a4,4,0,1,1,4-4A4,4,0,0,1,30,23Z" transform="translate(-2)" fill="#0a00b7" stroke="#0b00b8" stroke-width="1"/>
  </g>
</svg>
