<svg xmlns="http://www.w3.org/2000/svg" width="124.141" height="124.127" viewBox="0 0 124.141 124.127">
  <g id="target_4147788" transform="translate(0.491 0.711)">
    <path id="Path_9" data-name="Path 9" d="M208.663,185.389a17.442,17.442,0,1,0,7.646,7.646l-11.7,11.7a5.406,5.406,0,0,1-7.646-7.646Z" transform="translate(-139.248 -139.491)" fill="none" stroke="#fff" stroke-width="1"/>
    <path id="Path_10" data-name="Path 10" d="M179.354,138.671A29.465,29.465,0,1,0,187,146.312l-6.086,6.086a21.034,21.034,0,1,1-7.646-7.646Z" transform="translate(-101.193 -101.514)" fill="none" stroke="#fff" stroke-width="1"/>
    <path id="Path_11" data-name="Path 11" d="M111.978,39.014A14.345,14.345,0,0,1,110.63,40.2,53.38,53.38,0,1,1,82.758,12.329a15.38,15.38,0,0,1,1.2-1.348l4.767-4.765A61.478,61.478,0,1,0,116.75,34.242Z" transform="translate(0 0)" fill="none" stroke="#fff" stroke-width="1"/>
    <path id="Path_12" data-name="Path 12" d="M98.358,48.5a49.863,49.863,0,1,0,45.953,30.52,14.972,14.972,0,0,1-9.95.836l-7.8-2.054-1.346,1.346a33.014,33.014,0,1,1-7.638-7.65l1.346-1.346-2.066-7.8a15.056,15.056,0,0,1,.824-9.955A49.593,49.593,0,0,0,98.358,48.5Z" transform="translate(-36.824 -36.933)" fill="none" stroke="#fff" stroke-width="1"/>
    <path id="Path_13" data-name="Path 13" d="M272.153,24.59l2.578,9.8L248.886,60.237a1.8,1.8,0,1,0,2.547,2.547L277.28,36.94l9.8,2.578a11.444,11.444,0,0,0,10.976-2.967l13.086-13.086a1.8,1.8,0,0,0-.815-3.018l-15.138-3.979L291.224,1.343a1.8,1.8,0,0,0-3.018-.815L275.12,13.614a11.454,11.454,0,0,0-2.967,10.976Z" transform="translate(-188.626 -0.086)" fill="none" stroke="#fff" stroke-width="1"/>
  </g>
</svg>
