<svg xmlns="http://www.w3.org/2000/svg" width="49.219" height="56" viewBox="0 0 49.219 56">
  <g id="user_456283" transform="translate(-31)">
    <g id="Group_128" data-name="Group 128" transform="translate(38.921)">
      <g id="Group_127" data-name="Group 127">
        <path id="Path_2008" data-name="Path 2008" d="M137.688,0a16.688,16.688,0,1,0,16.688,16.688A16.707,16.707,0,0,0,137.688,0Zm0,29.668a12.98,12.98,0,1,1,12.98-12.98A12.994,12.994,0,0,1,137.688,29.668Z" transform="translate(-121)" fill="#0a00b7"/>
      </g>
    </g>
    <g id="Group_130" data-name="Group 130" transform="translate(31 29.794)">
      <g id="Group_129" data-name="Group 129">
        <path id="Path_2009" data-name="Path 2009" d="M73.981,307.194A19.936,19.936,0,0,0,58.891,300H52.328a19.936,19.936,0,0,0-15.09,7.194A26.035,26.035,0,0,0,31,324.352a1.757,1.757,0,0,0,1.641,1.854H78.578a1.757,1.757,0,0,0,1.641-1.854A26.035,26.035,0,0,0,73.981,307.194ZM34.353,322.5c.822-10.518,8.57-18.79,17.975-18.79h6.562c9.405,0,17.153,8.272,17.975,18.79Z" transform="translate(-31 -300)" fill="#0a00b7"/>
      </g>
    </g>
  </g>
</svg>
